<?xml version="1.0" encoding="utf-8"?>
<!-- Generator: Adobe Illustrator 19.2.1, SVG Export Plug-In . SVG Version: 6.00 Build 0)  -->
<svg version="1.1" id="Layer_1" xmlns="http://www.w3.org/2000/svg" xmlns:xlink="http://www.w3.org/1999/xlink" x="0px" y="0px"
	 viewBox="0 0 297.64 297.64" style="enable-background:new 0 0 297.64 297.64;" xml:space="preserve">
<style type="text/css">
	.st0{fill:none;}
	.st1{fill:#32CD00;}
	.st2{fill:#7800A0;}
</style>
<rect x="-8.5" y="-8.5" transform="matrix(-1 4.246769e-11 -4.246769e-11 -1 297.64 297.64)" class="st0" width="314.65" height="314.65"/>
<g>
	<path class="st1" d="M267.16,112.27c-1.12-1.12-1.74-2.62-1.74-4.22c0-1.6,0.62-3.1,1.74-4.22c1.06-1.06,1.64-2.47,1.64-3.97
		c0-1.5-0.58-2.91-1.64-3.97c-1.12-1.12-1.74-2.62-1.74-4.22s0.62-3.1,1.74-4.22c2.19-2.19,2.19-5.75,0-7.94
		c-1.12-1.12-1.74-2.62-1.74-4.22c0-1.6,0.62-3.1,1.74-4.22c2.19-2.19,2.19-5.75,0-7.94c-1.12-1.12-1.74-2.62-1.74-4.22
		c0-1.6,0.62-3.1,1.74-4.22c2.19-2.19,2.19-5.75,0-7.94c-1.12-1.12-1.74-2.62-1.74-4.22c0-1.6,0.62-3.1,1.74-4.22
		c2.19-2.19,2.15-5.78-0.07-8.01c-1.09-1.09-2.54-1.69-4.08-1.69c-1.5,0-2.9,0.57-3.94,1.62c-1.12,1.12-2.62,1.74-4.22,1.74
		c-1.6,0-3.1-0.62-4.22-1.74c-1.06-1.06-2.47-1.64-3.97-1.64s-2.91,0.58-3.97,1.64c-1.12,1.12-2.62,1.74-4.22,1.74
		s-3.1-0.62-4.22-1.74c-1.06-1.06-2.46-1.64-3.97-1.64s-2.91,0.58-3.97,1.64c-1.12,1.12-2.62,1.74-4.22,1.74s-3.1-0.62-4.22-1.74
		c-1.06-1.06-2.47-1.64-3.97-1.64c-1.5,0-2.91,0.58-3.97,1.64c-1.12,1.12-2.62,1.74-4.22,1.74s-3.1-0.62-4.22-1.74
		c-1.06-1.06-2.46-1.64-3.97-1.64s-2.91,0.58-3.97,1.64c-1.12,1.12-2.62,1.74-4.22,1.74c-1.6,0-3.1-0.62-4.22-1.74
		c-1.06-1.06-2.46-1.64-3.97-1.64s-2.91,0.58-3.97,1.64c-1.12,1.12-2.62,1.74-4.22,1.74c-1.6,0-3.1-0.62-4.22-1.74
		c-1.06-1.06-2.47-1.64-3.97-1.64c-1.5,0-2.91,0.58-3.97,1.64c-1.12,1.12-2.62,1.74-4.22,1.74s-3.1-0.62-4.22-1.74
		c-1.06-1.06-2.46-1.64-3.97-1.64s-2.91,0.58-3.97,1.64c-1.12,1.12-2.62,1.74-4.22,1.74c-1.6,0-3.1-0.62-4.22-1.74
		c-1.06-1.06-2.46-1.64-3.97-1.64s-2.91,0.58-3.97,1.64c-1.12,1.12-2.62,1.74-4.22,1.74c-1.6,0-3.1-0.62-4.22-1.74
		c-1.06-1.06-2.46-1.64-3.97-1.64s-2.91,0.58-3.97,1.64c-1.12,1.12-2.62,1.74-4.22,1.74c-1.6,0-3.1-0.62-4.22-1.74
		c-1.06-1.06-2.47-1.64-3.97-1.64s-2.91,0.58-3.97,1.64c-1.12,1.12-2.62,1.74-4.22,1.74c-1.6,0-3.1-0.62-4.22-1.74
		c-1.06-1.06-2.46-1.64-3.97-1.64s-2.91,0.58-3.97,1.64c-1.12,1.12-2.62,1.74-4.22,1.74s-3.1-0.62-4.22-1.74
		c-1.06-1.06-2.46-1.64-3.97-1.64c-1.5,0-2.91,0.58-3.97,1.64c-1.12,1.12-2.62,1.74-4.22,1.74c-1.6,0-3.1-0.62-4.22-1.74
		c-1.06-1.06-2.46-1.64-3.97-1.64s-2.91,0.58-3.97,1.64c-1.12,1.12-2.62,1.74-4.22,1.74s-3.1-0.62-4.22-1.74
		c-1.04-1.04-2.44-1.62-3.94-1.62c-1.54,0-2.99,0.6-4.08,1.69c-2.23,2.23-2.26,5.82-0.08,8.01c1.13,1.13,1.75,2.62,1.75,4.22
		s-0.62,3.09-1.75,4.22c-2.19,2.19-2.19,5.75,0,7.94c1.12,1.12,1.74,2.62,1.74,4.22c0,1.6-0.62,3.1-1.74,4.22
		c-2.19,2.19-2.19,5.75,0,7.94c1.12,1.12,1.74,2.62,1.74,4.22s-0.62,3.1-1.74,4.22c-2.19,2.19-2.19,5.75,0,7.94
		c1.12,1.12,1.74,2.62,1.74,4.22c0,1.6-0.62,3.1-1.74,4.22c-2.19,2.19-2.19,5.75,0,7.94c1.12,1.12,1.74,2.62,1.74,4.22
		s-0.62,3.1-1.74,4.22c-2.19,2.19-2.19,5.75,0,7.94c1.12,1.12,1.74,2.62,1.74,4.22c0,1.6-0.62,3.1-1.74,4.22
		c-1.05,1.06-1.63,2.47-1.62,3.99c0.01,1.52,0.61,2.95,1.69,4.02c1.09,1.09,2.54,1.69,4.07,1.69c1.5,0,2.9-0.57,3.94-1.62
		c1.12-1.12,2.62-1.74,4.22-1.74s3.1,0.62,4.22,1.74c1.06,1.06,2.46,1.64,3.97,1.64s2.91-0.58,3.97-1.64
		c1.14-1.14,2.65-1.76,4.25-1.76c1.56,0,3.03,0.6,4.11,1.69c1.1,1.1,1.7,2.58,1.69,4.17c-0.01,1.58-0.64,3.07-1.76,4.2
		c-1.06,1.06-1.64,2.46-1.64,3.97c0,1.5,0.58,2.91,1.64,3.97c1.12,1.12,1.75,2.62,1.75,4.22s-0.62,3.09-1.75,4.22
		c-1.06,1.06-1.64,2.46-1.64,3.97s0.58,2.91,1.64,3.97c1.13,1.13,1.75,2.62,1.77,4.2c0.01,1.58-0.59,3.06-1.69,4.16
		c-1.09,1.09-2.55,1.69-4.11,1.69c-1.6,0-3.11-0.63-4.25-1.76c-1.06-1.06-2.46-1.64-3.97-1.64c-1.5,0-2.91,0.58-3.97,1.64
		c-1.12,1.12-2.62,1.74-4.22,1.74s-3.1-0.62-4.22-1.74c-1.04-1.04-2.44-1.62-3.94-1.62c-1.54,0-2.98,0.6-4.07,1.69
		c-1.08,1.08-1.68,2.5-1.69,4.02c-0.01,1.52,0.56,2.93,1.62,3.99c1.12,1.12,1.74,2.62,1.74,4.22c0,1.6-0.62,3.1-1.74,4.22
		c-2.19,2.19-2.19,5.75,0,7.94c1.12,1.12,1.74,2.62,1.74,4.22c0,1.6-0.62,3.1-1.74,4.22c-1.05,1.06-1.63,2.47-1.62,3.99
		c0.01,1.52,0.61,2.95,1.69,4.02c1.09,1.09,2.54,1.69,4.07,1.69c1.5,0,2.89-0.57,3.94-1.62c1.12-1.12,2.62-1.74,4.22-1.74
		s3.1,0.62,4.22,1.74c1.06,1.06,2.47,1.64,3.97,1.64s2.91-0.58,3.97-1.64c1.12-1.12,2.62-1.74,4.22-1.74c1.6,0,3.1,0.62,4.22,1.74
		c1.06,1.06,2.47,1.64,3.97,1.64c1.5,0,2.91-0.58,3.97-1.64c1.12-1.12,2.62-1.74,4.22-1.74s3.1,0.62,4.22,1.74
		c1.06,1.06,2.47,1.64,3.97,1.64c1.5,0,2.91-0.58,3.97-1.64c1.12-1.12,2.62-1.74,4.22-1.74c1.6,0,3.1,0.62,4.22,1.74
		c1.06,1.06,2.47,1.64,3.97,1.64s2.91-0.58,3.97-1.64c1.12-1.12,2.62-1.74,4.22-1.74c1.6,0,3.1,0.62,4.22,1.74
		c1.04,1.04,2.44,1.62,3.94,1.62c1.54,0,2.98-0.6,4.07-1.69c1.08-1.08,1.68-2.5,1.69-4.02c0.01-1.52-0.56-2.93-1.62-3.99
		c-2.33-2.33-2.33-6.11,0-8.44c2.19-2.19,2.19-5.75,0-7.94c-1.12-1.12-1.74-2.62-1.74-4.22c0-1.6,0.62-3.09,1.74-4.22
		c2.19-2.19,2.19-5.75,0-7.94c-2.33-2.33-2.36-6.08-0.08-8.36c1.09-1.09,2.55-1.69,4.11-1.69c1.6,0,3.11,0.63,4.25,1.76
		c1.06,1.06,2.47,1.64,3.97,1.64s2.91-0.58,3.97-1.64c1.14-1.14,2.65-1.76,4.25-1.76c1.56,0,3.03,0.6,4.11,1.69
		c2.29,2.29,2.25,6.04-0.08,8.36c-1.06,1.06-1.64,2.46-1.64,3.97c0,1.5,0.58,2.91,1.64,3.97c1.12,1.12,1.74,2.62,1.74,4.22
		c0,1.6-0.62,3.1-1.74,4.22c-1.06,1.06-1.64,2.46-1.64,3.97c0,1.5,0.58,2.91,1.64,3.97c2.33,2.33,2.33,6.11,0,8.44
		c-1.06,1.06-1.63,2.47-1.62,3.99c0.01,1.52,0.61,2.95,1.69,4.02c1.09,1.09,2.54,1.69,4.07,1.69c1.5,0,2.89-0.57,3.94-1.62
		c1.12-1.12,2.62-1.74,4.22-1.74s3.1,0.62,4.22,1.74c1.04,1.04,2.44,1.62,3.94,1.62c1.54,0,2.99-0.6,4.08-1.69
		c2.23-2.23,2.26-5.82,0.08-8.01c-1.12-1.12-1.74-2.62-1.74-4.22c0-1.6,0.62-3.1,1.74-4.22c2.19-2.19,2.19-5.75,0-7.94
		c-1.12-1.12-1.75-2.61-1.76-4.2c-0.02-1.58,0.58-3.06,1.69-4.17c1.09-1.09,2.55-1.69,4.11-1.69c1.6,0,3.11,0.63,4.25,1.76
		c1.06,1.06,2.46,1.64,3.97,1.64c1.5,0,2.91-0.58,3.97-1.64c1.12-1.12,2.62-1.74,4.22-1.74c1.6,0,3.1,0.62,4.22,1.74
		c1.06,1.06,2.46,1.64,3.97,1.64c1.5,0,2.91-0.58,3.97-1.64c1.14-1.14,2.65-1.76,4.25-1.76c1.56,0,3.02,0.6,4.11,1.69
		c1.1,1.1,1.7,2.58,1.69,4.17c-0.02,1.58-0.64,3.07-1.76,4.2c-2.19,2.19-2.19,5.75,0,7.94c1.12,1.12,1.74,2.62,1.74,4.22
		s-0.62,3.1-1.74,4.22c-2.19,2.19-2.15,5.78,0.07,8.01c1.09,1.09,2.54,1.69,4.08,1.69c1.5,0,2.89-0.57,3.94-1.62
		c1.12-1.12,2.62-1.74,4.22-1.74s3.1,0.62,4.22,1.74c1.06,1.06,2.47,1.64,3.97,1.64s2.91-0.58,3.97-1.64
		c1.12-1.12,2.62-1.74,4.22-1.74s3.1,0.62,4.22,1.74c1.06,1.06,2.47,1.64,3.97,1.64c1.5,0,2.91-0.58,3.97-1.64
		c1.12-1.12,2.62-1.74,4.22-1.74c1.6,0,3.1,0.62,4.22,1.74c1.04,1.04,2.44,1.62,3.94,1.62c1.54,0,2.98-0.6,4.08-1.69
		c1.08-1.08,1.68-2.5,1.69-4.02c0.01-1.52-0.56-2.93-1.62-3.99c-2.33-2.33-2.33-6.11,0-8.44c1.06-1.06,1.64-2.47,1.64-3.97
		c0-1.5-0.58-2.91-1.64-3.97c-1.12-1.12-1.74-2.62-1.74-4.22s0.62-3.1,1.74-4.22c1.06-1.06,1.64-2.47,1.64-3.97
		s-0.58-2.91-1.64-3.97c-2.33-2.33-2.33-6.11,0-8.44c1.06-1.05,1.64-2.46,1.64-3.97c0-1.5-0.58-2.91-1.64-3.97
		c-1.12-1.12-1.74-2.62-1.74-4.22s0.62-3.1,1.74-4.22c1.06-1.06,1.64-2.47,1.64-3.97c0-1.5-0.58-2.91-1.64-3.97
		c-2.33-2.33-2.33-6.11,0-8.44c1.06-1.06,1.64-2.46,1.64-3.97s-0.58-2.91-1.64-3.97c-1.12-1.12-1.74-2.62-1.74-4.22
		s0.62-3.1,1.74-4.22C269.35,118.01,269.35,114.45,267.16,112.27z M178.87,32.06c0.61-0.61,1.42-0.94,2.29-0.94s1.68,0.33,2.29,0.94
		c0.61,0.61,0.95,1.42,0.95,2.29s-0.34,1.68-0.95,2.29c-1.22,1.22-3.36,1.22-4.57,0c-0.61-0.61-0.95-1.42-0.95-2.29
		S178.26,32.67,178.87,32.06z M156.59,179.41c-1.57,0-3.04-0.61-4.14-1.71c-1.1-1.1-1.71-2.57-1.71-4.14c0-1.57,0.61-3.04,1.71-4.15
		c1.1-1.1,2.57-1.71,4.14-1.71s3.04,0.61,4.14,1.71c1.1,1.1,1.71,2.57,1.71,4.14c0,1.57-0.61,3.04-1.71,4.15
		C159.63,178.8,158.15,179.41,156.59,179.41z M162.45,189.93c0,1.57-0.61,3.04-1.71,4.14c-1.1,1.1-2.58,1.71-4.15,1.71
		c-1.57,0-3.04-0.61-4.14-1.71c-1.1-1.1-1.71-2.57-1.71-4.14c0-1.57,0.61-3.04,1.71-4.14s2.57-1.71,4.14-1.71
		c1.57,0,3.04,0.61,4.15,1.71C161.84,186.89,162.45,188.36,162.45,189.93z M160.73,161.32c-1.1,1.1-2.57,1.71-4.14,1.71
		s-3.04-0.61-4.14-1.71c-1.1-1.1-1.71-2.57-1.71-4.14c0-1.57,0.61-3.04,1.71-4.15c1.1-1.1,2.58-1.71,4.14-1.71s3.04,0.61,4.14,1.71
		c1.1,1.1,1.71,2.58,1.71,4.15C162.44,158.75,161.83,160.22,160.73,161.32z M150.73,140.8c0-1.57,0.61-3.04,1.71-4.15
		c1.1-1.1,2.58-1.71,4.14-1.71s3.04,0.61,4.14,1.71s1.71,2.57,1.71,4.15s-0.61,3.04-1.71,4.14c-1.1,1.1-2.57,1.71-4.14,1.71
		s-3.04-0.61-4.14-1.71S150.73,142.37,150.73,140.8z M161.55,148.99c0-0.87,0.33-1.68,0.94-2.29c0.61-0.61,1.42-0.94,2.29-0.94
		c0.87,0,1.68,0.33,2.29,0.94c0.61,0.61,0.94,1.42,0.94,2.29c0,0.87-0.33,1.68-0.94,2.29c-1.22,1.22-3.36,1.22-4.57,0
		C161.88,150.67,161.55,149.86,161.55,148.99z M177.11,128.57c-1.1,1.1-2.58,1.71-4.15,1.71c-1.57,0-3.04-0.61-4.14-1.71
		c-2.29-2.29-2.29-6,0-8.29c1.1-1.1,2.57-1.71,4.14-1.71s3.04,0.61,4.15,1.71C179.39,122.56,179.39,126.28,177.11,128.57z
		 M177.11,144.95c-1.1,1.1-2.58,1.71-4.15,1.71s-3.04-0.61-4.14-1.71c-2.29-2.29-2.29-6,0-8.29c1.1-1.1,2.58-1.71,4.14-1.71
		c1.57,0,3.04,0.61,4.15,1.71C179.39,138.94,179.39,142.66,177.11,144.95z M177.11,112.19c-1.1,1.1-2.58,1.71-4.15,1.71
		c-1.57,0-3.04-0.61-4.14-1.71c-2.29-2.29-2.29-6,0-8.29c1.1-1.1,2.58-1.71,4.14-1.71c1.57,0,3.04,0.61,4.15,1.71
		C179.39,106.19,179.39,109.91,177.11,112.19z M177.11,95.81c-1.1,1.1-2.58,1.71-4.15,1.71s-3.04-0.61-4.14-1.71
		c-2.29-2.29-2.29-6,0-8.29c1.1-1.1,2.57-1.71,4.14-1.71s3.04,0.61,4.15,1.71C179.39,89.81,179.39,93.53,177.11,95.81z
		 M177.11,79.44c-1.1,1.1-2.58,1.71-4.15,1.71c-1.57,0-3.04-0.61-4.14-1.71c-2.29-2.29-2.29-6,0-8.29c1.1-1.1,2.58-1.71,4.14-1.71
		c1.57,0,3.04,0.61,4.15,1.71C179.39,73.43,179.39,77.15,177.11,79.44z M177.11,63.06c-1.1,1.1-2.58,1.71-4.15,1.71
		s-3.04-0.61-4.14-1.71c-2.29-2.29-2.29-6,0-8.29c1.1-1.1,2.58-1.71,4.14-1.71c1.57,0,3.04,0.61,4.15,1.71
		c1.11,1.11,1.71,2.58,1.71,4.15S178.21,61.95,177.11,63.06z M168.01,67.1c0,0.87-0.33,1.68-0.94,2.29c-1.22,1.22-3.36,1.22-4.57,0
		c-0.61-0.61-0.94-1.42-0.94-2.29c0-0.87,0.33-1.68,0.94-2.29c0.61-0.61,1.42-0.94,2.29-0.94c0.87,0,1.68,0.34,2.29,0.94
		C167.67,65.42,168.01,66.24,168.01,67.1z M164.78,80.25c0.87,0,1.68,0.33,2.29,0.94c1.26,1.26,1.26,3.31,0,4.57
		c-1.22,1.22-3.36,1.22-4.57,0c-0.61-0.61-0.94-1.42-0.94-2.29c0-0.87,0.33-1.68,0.94-2.29C163.1,80.59,163.91,80.25,164.78,80.25z
		 M164.78,96.63c0.87,0,1.68,0.33,2.29,0.94c1.26,1.26,1.26,3.31,0,4.57c-1.22,1.22-3.36,1.22-4.57,0
		c-0.61-0.61-0.94-1.42-0.94-2.29c0-0.87,0.33-1.68,0.94-2.29C163.1,96.96,163.91,96.63,164.78,96.63z M168.82,153.03
		c1.1-1.1,2.58-1.71,4.14-1.71c1.57,0,3.04,0.61,4.15,1.71c2.29,2.29,2.29,6,0,8.29c-1.1,1.1-2.58,1.71-4.15,1.71
		s-3.04-0.61-4.14-1.71C166.53,159.04,166.53,155.32,168.82,153.03z M177.92,148.99c0-0.87,0.33-1.68,0.94-2.29
		c0.61-0.61,1.42-0.94,2.29-0.94s1.68,0.33,2.29,0.94c0.61,0.61,0.95,1.42,0.95,2.29c0,0.86-0.34,1.68-0.95,2.29
		c-1.22,1.22-3.36,1.22-4.57,0C178.26,150.67,177.92,149.86,177.92,148.99z M178.87,53.01c-0.61-0.61-0.94-1.42-0.94-2.29
		s0.33-1.68,0.94-2.29c0.61-0.61,1.42-0.94,2.29-0.94c0.87,0,1.68,0.33,2.29,0.94c0.61,0.61,0.95,1.42,0.95,2.29
		s-0.34,1.68-0.95,2.29C182.22,54.23,180.08,54.23,178.87,53.01z M168.82,38.39c1.1-1.1,2.57-1.71,4.14-1.71s3.04,0.61,4.15,1.71
		c2.29,2.29,2.29,6,0,8.29c-1.1,1.1-2.58,1.71-4.15,1.71c-1.57,0-3.04-0.61-4.14-1.71C166.53,44.4,166.53,40.68,168.82,38.39z
		 M164.78,47.5c0.87,0,1.68,0.33,2.29,0.94c0.61,0.61,0.94,1.42,0.94,2.29s-0.33,1.68-0.94,2.29c-1.22,1.22-3.36,1.22-4.57,0
		c-0.61-0.61-0.94-1.42-0.94-2.29s0.33-1.68,0.94-2.29C163.1,47.83,163.91,47.5,164.78,47.5z M152.44,38.39
		c1.1-1.1,2.57-1.71,4.14-1.71c1.57,0,3.04,0.61,4.15,1.71c2.29,2.29,2.29,6,0,8.29c-1.1,1.1-2.58,1.71-4.15,1.71
		s-3.04-0.61-4.14-1.71s-1.71-2.58-1.71-4.15S151.34,39.49,152.44,38.39z M152.44,54.77c1.1-1.1,2.58-1.71,4.14-1.71
		s3.04,0.61,4.15,1.71c1.1,1.1,1.71,2.58,1.71,4.15s-0.61,3.04-1.71,4.14c-1.1,1.1-2.58,1.71-4.15,1.71c-1.57,0-3.04-0.61-4.14-1.71
		s-1.71-2.57-1.71-4.14S151.34,55.87,152.44,54.77z M152.44,71.15c1.1-1.1,2.58-1.71,4.14-1.71s3.04,0.61,4.15,1.71
		c1.11,1.11,1.71,2.58,1.71,4.15s-0.61,3.04-1.71,4.14c-1.1,1.1-2.58,1.71-4.15,1.71s-3.04-0.61-4.14-1.71
		c-1.1-1.1-1.71-2.57-1.71-4.15C150.73,73.72,151.34,72.25,152.44,71.15z M152.44,87.52c1.1-1.1,2.57-1.71,4.14-1.71
		c1.57,0,3.04,0.61,4.15,1.71c2.29,2.29,2.29,6,0,8.29c-1.1,1.1-2.58,1.71-4.15,1.71c-1.57,0-3.04-0.61-4.14-1.71
		c-1.1-1.1-1.71-2.57-1.71-4.14S151.34,88.63,152.44,87.52z M152.44,103.9c1.1-1.1,2.58-1.71,4.14-1.71s3.04,0.61,4.15,1.71
		c2.29,2.29,2.29,6,0,8.29c-1.1,1.1-2.58,1.71-4.15,1.71s-3.04-0.61-4.14-1.71c-1.1-1.1-1.71-2.57-1.71-4.14
		S151.34,105,152.44,103.9z M136.06,38.39c1.1-1.1,2.57-1.71,4.14-1.71c1.57,0,3.04,0.61,4.15,1.71c2.29,2.29,2.29,6,0,8.29
		c-1.1,1.1-2.58,1.71-4.15,1.71s-3.04-0.61-4.14-1.71c-1.11-1.11-1.71-2.58-1.71-4.15S134.96,39.5,136.06,38.39z M128.79,50.73
		c0-0.87,0.33-1.68,0.94-2.29c0.61-0.61,1.42-0.94,2.29-0.94s1.68,0.33,2.29,0.94c0.61,0.61,0.94,1.42,0.94,2.29
		s-0.33,1.68-0.94,2.29c-1.22,1.22-3.36,1.22-4.57,0C129.13,52.4,128.79,51.59,128.79,50.73z M127.98,63.06
		c-1.1,1.1-2.57,1.71-4.15,1.71c-1.57,0-3.04-0.61-4.14-1.71c-1.1-1.1-1.71-2.58-1.71-4.14c0-1.57,0.61-3.04,1.71-4.15
		c1.1-1.1,2.58-1.71,4.14-1.71c1.57,0,3.04,0.61,4.15,1.71C130.26,57.05,130.26,60.77,127.98,63.06z M136.06,54.77
		c1.1-1.1,2.57-1.71,4.14-1.71s3.04,0.61,4.15,1.71c1.1,1.1,1.71,2.58,1.71,4.15s-0.61,3.04-1.71,4.14c-1.1,1.1-2.58,1.71-4.15,1.71
		s-3.04-0.61-4.14-1.71c-1.1-1.1-1.71-2.57-1.71-4.14S134.96,55.87,136.06,54.77z M144.35,95.81c-1.1,1.1-2.58,1.71-4.15,1.71
		c-1.57,0-3.04-0.61-4.14-1.71c-1.11-1.11-1.71-2.58-1.71-4.14s0.61-3.04,1.71-4.14c1.1-1.1,2.57-1.71,4.14-1.71
		s3.04,0.61,4.15,1.71c1.11,1.11,1.71,2.58,1.71,4.14S145.46,94.71,144.35,95.81z M144.35,112.19c-1.1,1.1-2.58,1.71-4.15,1.71
		s-3.04-0.61-4.14-1.71c-1.11-1.11-1.71-2.58-1.71-4.14c0-1.57,0.61-3.04,1.71-4.15c1.1-1.1,2.57-1.71,4.14-1.71
		s3.04,0.61,4.15,1.71C146.64,106.19,146.64,109.91,144.35,112.19z M144.35,79.44c-1.1,1.1-2.58,1.71-4.15,1.71
		s-3.04-0.61-4.14-1.71c-1.11-1.11-1.71-2.58-1.71-4.15s0.61-3.04,1.71-4.15c1.1-1.1,2.57-1.71,4.14-1.71s3.04,0.61,4.15,1.71
		C146.64,73.43,146.64,77.15,144.35,79.44z M129.73,32.06c0.61-0.61,1.42-0.94,2.29-0.94s1.68,0.33,2.29,0.94
		c0.61,0.61,0.94,1.42,0.94,2.29c0,0.87-0.33,1.68-0.94,2.29c-1.22,1.22-3.36,1.22-4.57,0c-0.61-0.61-0.94-1.42-0.94-2.29
		C128.79,33.48,129.13,32.67,129.73,32.06z M119.69,38.39c1.1-1.1,2.57-1.71,4.14-1.71c1.57,0,3.04,0.61,4.15,1.71
		c2.29,2.29,2.29,6,0,8.29c-1.1,1.1-2.57,1.71-4.15,1.71c-1.57,0-3.04-0.61-4.14-1.71C117.4,44.4,117.4,40.68,119.69,38.39z
		 M119.69,71.15c1.1-1.1,2.58-1.71,4.14-1.71c1.57,0,3.04,0.61,4.15,1.71c2.29,2.29,2.29,6,0,8.29c-1.1,1.1-2.57,1.71-4.15,1.71
		c-1.57,0-3.04-0.61-4.14-1.71C117.4,77.15,117.4,73.43,119.69,71.15z M111.6,177.7c-1.1,1.1-2.58,1.71-4.14,1.71
		s-3.04-0.61-4.15-1.71c-1.11-1.11-1.71-2.58-1.71-4.14c0-1.57,0.61-3.04,1.71-4.15c1.1-1.1,2.58-1.71,4.15-1.71
		s3.04,0.61,4.14,1.71c1.1,1.1,1.71,2.57,1.71,4.15C113.31,175.13,112.7,176.6,111.6,177.7z M113.31,189.93
		c0,1.57-0.61,3.04-1.71,4.14c-1.1,1.1-2.57,1.71-4.14,1.71s-3.04-0.61-4.15-1.71c-1.11-1.11-1.71-2.58-1.71-4.14
		s0.61-3.04,1.71-4.14c1.1-1.1,2.58-1.71,4.15-1.71s3.04,0.61,4.14,1.71S113.31,188.36,113.31,189.93z M111.6,161.32
		c-1.1,1.1-2.57,1.71-4.14,1.71s-3.04-0.61-4.15-1.71c-2.29-2.29-2.29-6,0-8.29c1.1-1.1,2.58-1.71,4.15-1.71
		c1.57,0,3.04,0.61,4.14,1.71c1.1,1.1,1.71,2.58,1.71,4.15C113.31,158.75,112.7,160.22,111.6,161.32z M54.18,103.9
		c1.1-1.1,2.57-1.71,4.14-1.71s3.04,0.61,4.15,1.71c1.1,1.1,1.71,2.58,1.71,4.15c0,1.57-0.61,3.04-1.71,4.14
		c-1.1,1.1-2.58,1.71-4.15,1.71s-3.04-0.61-4.14-1.71s-1.71-2.57-1.71-4.14S53.08,105,54.18,103.9z M52.47,91.67
		c0-1.57,0.61-3.04,1.71-4.14c1.1-1.1,2.57-1.71,4.14-1.71s3.04,0.61,4.15,1.71c1.1,1.1,1.71,2.57,1.71,4.14s-0.61,3.04-1.71,4.14
		c-1.1,1.1-2.58,1.71-4.15,1.71c-1.57,0-3.04-0.61-4.14-1.71C53.08,94.71,52.47,93.24,52.47,91.67z M63.28,99.86
		c0-0.87,0.33-1.68,0.94-2.29c0.61-0.61,1.42-0.94,2.29-0.94s1.68,0.33,2.29,0.94c1.26,1.26,1.26,3.31,0,4.57
		c-1.22,1.22-3.36,1.22-4.57,0C63.62,101.54,63.28,100.72,63.28,99.86z M68.8,69.39c-1.22,1.22-3.36,1.22-4.57,0
		c-0.61-0.61-0.94-1.42-0.94-2.29s0.33-1.68,0.94-2.29c0.61-0.61,1.42-0.94,2.29-0.94s1.68,0.34,2.29,0.94
		C70.06,66.08,70.06,68.13,68.8,69.39z M68.85,58.91c0-1.57,0.61-3.04,1.71-4.15s2.58-1.71,4.14-1.71c1.57,0,3.04,0.61,4.14,1.71
		c1.1,1.1,1.71,2.57,1.71,4.15s-0.61,3.04-1.71,4.14c-1.1,1.1-2.57,1.71-4.14,1.71c-1.57,0-3.04-0.61-4.14-1.71
		C69.45,61.96,68.85,60.49,68.85,58.91z M78.85,144.95c-1.1,1.1-2.57,1.71-4.14,1.71c-1.57,0-3.04-0.61-4.14-1.71
		c-2.29-2.29-2.29-6,0-8.29c1.1-1.1,2.58-1.71,4.14-1.71c1.57,0,3.04,0.61,4.14,1.71c1.1,1.1,1.71,2.57,1.71,4.15
		S79.95,143.84,78.85,144.95z M80.56,157.18c0,1.57-0.61,3.04-1.71,4.14c-1.1,1.1-2.57,1.71-4.14,1.71c-1.57,0-3.04-0.61-4.14-1.71
		c-2.29-2.29-2.29-6,0-8.29c1.1-1.1,2.58-1.71,4.14-1.71c1.57,0,3.04,0.61,4.14,1.71C79.95,154.13,80.56,155.61,80.56,157.18z
		 M70.56,169.41c1.1-1.1,2.57-1.71,4.14-1.71c1.57,0,3.04,0.61,4.14,1.71c1.1,1.1,1.71,2.57,1.71,4.15c0,1.57-0.61,3.04-1.71,4.14
		c-1.1,1.1-2.57,1.71-4.14,1.71c-1.57,0-3.04-0.61-4.14-1.71C68.27,175.41,68.27,171.7,70.56,169.41z M74.7,184.08
		c1.57,0,3.04,0.61,4.14,1.71c1.1,1.1,1.71,2.57,1.71,4.14c0,1.57-0.61,3.04-1.71,4.14c-1.1,1.1-2.57,1.71-4.14,1.71
		c-1.57,0-3.04-0.61-4.14-1.71c-1.11-1.11-1.71-2.58-1.71-4.14s0.61-3.04,1.71-4.14C71.66,184.68,73.13,184.08,74.7,184.08z
		 M79.66,181.74c0-0.87,0.33-1.68,0.94-2.29c0.61-0.61,1.42-0.94,2.29-0.94c0.87,0,1.68,0.33,2.29,0.94c1.26,1.26,1.26,3.31,0,4.57
		c-1.22,1.22-3.36,1.22-4.57,0C79.99,183.42,79.66,182.61,79.66,181.74z M82.89,126.86c-1.5,0-2.91,0.58-3.97,1.64
		c-1.14,1.14-2.65,1.76-4.25,1.76c-1.56,0-3.03-0.6-4.11-1.69c-2.29-2.29-2.25-6.04,0.07-8.36c2.19-2.19,2.19-5.75,0-7.94
		c-1.12-1.12-1.75-2.62-1.75-4.22c0-1.6,0.62-3.09,1.75-4.22c1.06-1.06,1.64-2.47,1.64-3.97c0-1.5-0.58-2.91-1.64-3.97
		c-2.33-2.33-2.33-6.11,0-8.44c2.19-2.19,2.19-5.75,0-7.94c-2.33-2.33-2.36-6.08-0.07-8.36c1.09-1.09,2.55-1.69,4.11-1.69
		c1.6,0,3.11,0.63,4.25,1.76c1.06,1.06,2.47,1.64,3.97,1.64s2.91-0.58,3.97-1.64c1.14-1.14,2.65-1.76,4.25-1.76
		c1.56,0,3.02,0.6,4.11,1.69c2.29,2.29,2.25,6.04-0.08,8.36c-2.19,2.19-2.19,5.75,0,7.94c2.33,2.33,2.33,6.11,0,8.44
		c-1.06,1.06-1.64,2.47-1.64,3.97c0,1.5,0.58,2.91,1.64,3.97c1.12,1.12,1.75,2.62,1.75,4.22c0,1.6-0.62,3.09-1.75,4.22
		c-2.19,2.19-2.19,5.75,0,7.94c2.33,2.33,2.36,6.08,0.08,8.36c-1.09,1.09-2.55,1.69-4.11,1.69c-1.6,0-3.11-0.63-4.25-1.76
		C85.8,127.44,84.39,126.86,82.89,126.86z M103.31,120.28c1.1-1.1,2.58-1.71,4.15-1.71s3.04,0.61,4.14,1.71
		c1.1,1.1,1.71,2.57,1.71,4.14c0,1.57-0.61,3.04-1.71,4.15s-2.58,1.71-4.14,1.71c-1.57,0-3.04-0.61-4.15-1.71
		C101.02,126.28,101.02,122.56,103.31,120.28z M101.6,108.05c0-1.57,0.61-3.04,1.71-4.15c1.1-1.1,2.58-1.71,4.15-1.71
		c1.57,0,3.04,0.61,4.14,1.71c1.1,1.1,1.71,2.57,1.71,4.15s-0.61,3.04-1.71,4.14c-1.1,1.1-2.58,1.71-4.14,1.71
		c-1.57,0-3.04-0.61-4.15-1.71C102.2,111.09,101.6,109.61,101.6,108.05z M113.36,113.95c0.61-0.61,1.42-0.94,2.29-0.94
		s1.68,0.33,2.29,0.94c0.61,0.61,0.94,1.42,0.94,2.29c0,0.87-0.33,1.68-0.94,2.29c-1.22,1.22-3.35,1.22-4.57,0
		C112.1,117.26,112.1,115.21,113.36,113.95z M111.6,95.81c-1.1,1.1-2.57,1.71-4.14,1.71s-3.04-0.61-4.15-1.71
		c-1.11-1.11-1.71-2.58-1.71-4.14s0.61-3.04,1.71-4.14c1.1-1.1,2.58-1.71,4.15-1.71s3.04,0.61,4.14,1.71
		c1.1,1.1,1.71,2.57,1.71,4.14S112.7,94.71,111.6,95.81z M107.46,81.15c-1.57,0-3.04-0.61-4.15-1.71c-2.29-2.29-2.29-6,0-8.29
		c1.1-1.1,2.58-1.71,4.15-1.71c1.57,0,3.04,0.61,4.14,1.71c1.1,1.1,1.71,2.57,1.71,4.14c0,1.57-0.61,3.04-1.71,4.15
		C110.5,80.54,109.02,81.15,107.46,81.15z M111.6,63.06c-1.1,1.1-2.57,1.71-4.14,1.71s-3.04-0.61-4.15-1.71
		c-1.11-1.11-1.71-2.58-1.71-4.15s0.61-3.04,1.71-4.15c1.1-1.1,2.58-1.71,4.15-1.71c1.57,0,3.04,0.61,4.14,1.71s1.71,2.57,1.71,4.15
		C113.31,60.49,112.7,61.96,111.6,63.06z M101.55,53.01c-1.22,1.22-3.35,1.22-4.57,0c-0.61-0.61-0.95-1.42-0.95-2.29
		s0.34-1.68,0.95-2.29c0.61-0.61,1.42-0.94,2.29-0.94c0.87,0,1.68,0.33,2.29,0.94c0.61,0.61,0.94,1.42,0.94,2.29
		S102.16,52.4,101.55,53.01z M96.93,58.91c0,1.57-0.61,3.04-1.71,4.14c-1.1,1.1-2.58,1.71-4.15,1.71s-3.04-0.61-4.14-1.71
		c-1.1-1.1-1.71-2.58-1.71-4.14c0-1.57,0.61-3.04,1.71-4.15c1.1-1.1,2.58-1.71,4.14-1.71c1.57,0,3.04,0.61,4.15,1.71
		C96.32,55.87,96.93,57.34,96.93,58.91z M96.94,140.8c0,1.57-0.61,3.04-1.71,4.15c-1.1,1.1-2.58,1.71-4.15,1.71
		s-3.04-0.61-4.14-1.71c-2.29-2.29-2.29-6,0-8.29c1.1-1.1,2.58-1.71,4.14-1.71c1.57,0,3.04,0.61,4.15,1.71
		C96.33,137.76,96.94,139.23,96.94,140.8z M86.93,153.03c1.1-1.1,2.58-1.71,4.14-1.71c1.57,0,3.04,0.61,4.15,1.71
		c2.29,2.29,2.29,6,0,8.29c-1.1,1.1-2.58,1.71-4.15,1.71s-3.04-0.61-4.14-1.71C84.65,159.04,84.65,155.32,86.93,153.03z
		 M96.03,148.99c0-0.87,0.34-1.68,0.95-2.29c0.61-0.61,1.42-0.94,2.29-0.94s1.68,0.33,2.29,0.94s0.94,1.42,0.94,2.29
		c0,0.87-0.33,1.68-0.94,2.29c-1.22,1.22-3.36,1.22-4.57,0C96.37,150.67,96.03,149.85,96.03,148.99z M111.6,144.95
		c-1.1,1.1-2.57,1.71-4.14,1.71s-3.04-0.61-4.15-1.71c-2.29-2.29-2.29-6,0-8.29c1.1-1.1,2.58-1.71,4.15-1.71
		c1.57,0,3.04,0.61,4.14,1.71c1.1,1.1,1.71,2.58,1.71,4.15S112.7,143.84,111.6,144.95z M112.41,132.61c0-0.87,0.33-1.68,0.94-2.29
		s1.42-0.94,2.29-0.94s1.68,0.33,2.29,0.94c1.26,1.26,1.26,3.31,0,4.57c-1.22,1.22-3.36,1.22-4.57,0
		C112.75,134.29,112.41,133.48,112.41,132.61z M119.69,136.66c1.1-1.1,2.58-1.71,4.14-1.71c1.57,0,3.04,0.61,4.15,1.71
		c1.11,1.11,1.71,2.58,1.71,4.15s-0.61,3.04-1.71,4.15c-1.1,1.1-2.57,1.71-4.15,1.71c-1.57,0-3.04-0.61-4.14-1.71
		c-1.11-1.11-1.71-2.58-1.71-4.15S118.58,137.76,119.69,136.66z M127.98,128.57c-1.1,1.1-2.57,1.71-4.15,1.71
		c-1.57,0-3.04-0.61-4.14-1.71c-2.29-2.29-2.29-6,0-8.29c1.1-1.1,2.57-1.71,4.14-1.71c1.57,0,3.04,0.61,4.15,1.71
		C130.26,122.56,130.26,126.28,127.98,128.57z M127.98,112.19c-1.1,1.1-2.57,1.71-4.15,1.71c-1.57,0-3.04-0.61-4.14-1.71
		c-2.29-2.29-2.29-6,0-8.29c1.1-1.1,2.58-1.71,4.14-1.71c1.57,0,3.04,0.61,4.15,1.71C130.26,106.19,130.26,109.91,127.98,112.19z
		 M127.98,95.81c-1.1,1.1-2.57,1.71-4.15,1.71c-1.57,0-3.04-0.61-4.14-1.71c-2.29-2.29-2.29-6,0-8.29c1.1-1.1,2.57-1.71,4.14-1.71
		c1.57,0,3.04,0.61,4.15,1.71C130.26,89.81,130.26,93.53,127.98,95.81z M115.64,80.25c0.87,0,1.68,0.33,2.29,0.94
		c0.61,0.61,0.94,1.42,0.94,2.29c0,0.87-0.33,1.68-0.94,2.29c-1.22,1.22-3.36,1.22-4.57,0c-1.26-1.26-1.26-3.31,0-4.57
		C113.97,80.59,114.78,80.25,115.64,80.25z M103.31,38.39c1.1-1.1,2.58-1.71,4.15-1.71s3.04,0.61,4.14,1.71s1.71,2.57,1.71,4.14
		s-0.61,3.04-1.71,4.15s-2.58,1.71-4.14,1.71c-1.57,0-3.04-0.61-4.15-1.71c-1.11-1.11-1.71-2.58-1.71-4.15S102.2,39.5,103.31,38.39z
		 M96.98,32.06c0.61-0.61,1.42-0.94,2.29-0.94s1.68,0.33,2.29,0.94c0.61,0.61,0.94,1.42,0.94,2.29c0,0.87-0.33,1.68-0.94,2.29
		c-1.22,1.22-3.36,1.22-4.57,0c-0.61-0.61-0.95-1.42-0.95-2.29S96.37,32.67,96.98,32.06z M86.93,38.39c1.1-1.1,2.57-1.71,4.14-1.71
		s3.04,0.61,4.15,1.71c1.11,1.11,1.71,2.58,1.71,4.15s-0.61,3.04-1.71,4.15c-1.1,1.1-2.58,1.71-4.15,1.71
		c-1.57,0-3.04-0.61-4.14-1.71c-1.11-1.11-1.71-2.58-1.71-4.15S85.83,39.5,86.93,38.39z M82.89,63.87c0.87,0,1.68,0.33,2.29,0.94
		c0.61,0.61,0.94,1.42,0.94,2.29s-0.33,1.68-0.94,2.29c-1.21,1.22-3.36,1.22-4.57,0c-0.61-0.61-0.94-1.42-0.94-2.29
		c0-0.87,0.33-1.68,0.94-2.29C81.21,64.21,82.02,63.87,82.89,63.87z M70.56,38.39c1.1-1.1,2.57-1.71,4.14-1.71
		c1.57,0,3.04,0.61,4.14,1.71c1.1,1.1,1.71,2.57,1.71,4.14s-0.61,3.04-1.71,4.15c-1.1,1.1-2.57,1.71-4.14,1.71
		c-1.57,0-3.04-0.61-4.14-1.71C68.27,44.4,68.27,40.68,70.56,38.39z M66.51,47.5c0.87,0,1.68,0.33,2.29,0.94
		c1.26,1.26,1.26,3.31,0,4.57c-1.22,1.22-3.36,1.22-4.57,0c-0.61-0.61-0.94-1.42-0.94-2.29c0-0.87,0.33-1.68,0.94-2.29
		C64.83,47.83,65.65,47.5,66.51,47.5z M54.18,38.39c1.1-1.1,2.57-1.71,4.14-1.71c1.57,0,3.04,0.61,4.15,1.71
		c1.1,1.1,1.71,2.57,1.71,4.14s-0.61,3.04-1.71,4.15c-1.1,1.1-2.58,1.71-4.15,1.71s-3.04-0.61-4.14-1.71
		c-1.1-1.1-1.71-2.58-1.71-4.15S53.08,39.49,54.18,38.39z M54.18,54.77c1.1-1.1,2.57-1.71,4.14-1.71s3.04,0.61,4.15,1.71
		c1.1,1.1,1.71,2.58,1.71,4.15s-0.61,3.04-1.71,4.14c-1.1,1.1-2.58,1.71-4.15,1.71s-3.04-0.61-4.14-1.71
		c-1.1-1.1-1.71-2.57-1.71-4.14S53.08,55.87,54.18,54.77z M54.18,71.15c1.1-1.1,2.57-1.71,4.14-1.71s3.04,0.61,4.15,1.71
		c1.1,1.1,1.71,2.57,1.71,4.14c0,1.57-0.61,3.04-1.71,4.15c-1.1,1.1-2.58,1.71-4.15,1.71s-3.04-0.61-4.14-1.71s-1.71-2.57-1.71-4.15
		C52.47,73.72,53.08,72.25,54.18,71.15z M50.14,80.25c0.87,0,1.68,0.33,2.29,0.94c0.61,0.61,0.95,1.42,0.95,2.29
		s-0.34,1.68-0.95,2.29c-1.22,1.22-3.36,1.22-4.57,0c-0.61-0.61-0.94-1.42-0.94-2.29c0-0.87,0.33-1.68,0.94-2.29
		C48.46,80.59,49.27,80.25,50.14,80.25z M37.8,71.15c1.1-1.1,2.58-1.71,4.15-1.71s3.04,0.61,4.14,1.71
		c1.11,1.11,1.71,2.58,1.71,4.15s-0.61,3.04-1.71,4.15c-1.1,1.1-2.57,1.71-4.14,1.71s-3.04-0.61-4.15-1.71
		c-1.11-1.11-1.71-2.58-1.71-4.15S36.7,72.25,37.8,71.15z M36.09,58.91c0-1.57,0.61-3.04,1.71-4.15c1.1-1.1,2.58-1.71,4.15-1.71
		s3.04,0.61,4.14,1.71c1.1,1.1,1.71,2.58,1.71,4.15s-0.61,3.04-1.71,4.14c-1.1,1.1-2.57,1.71-4.14,1.71c-1.57,0-3.04-0.61-4.15-1.71
		C36.7,61.95,36.09,60.48,36.09,58.91z M37.8,87.52c1.1-1.1,2.58-1.71,4.15-1.71c1.57,0,3.04,0.61,4.14,1.71
		c1.1,1.1,1.71,2.57,1.71,4.14s-0.61,3.04-1.71,4.14c-1.1,1.1-2.57,1.71-4.14,1.71c-1.57,0-3.04-0.61-4.15-1.71
		c-1.11-1.11-1.71-2.58-1.71-4.14S36.7,88.63,37.8,87.52z M41.95,102.19c1.57,0,3.04,0.61,4.14,1.71c1.11,1.11,1.71,2.58,1.71,4.15
		c0,1.57-0.61,3.04-1.71,4.14c-1.1,1.1-2.57,1.71-4.14,1.71s-3.04-0.61-4.15-1.71c-1.11-1.11-1.71-2.58-1.71-4.14
		c0-1.57,0.61-3.04,1.71-4.15C38.9,102.8,40.38,102.19,41.95,102.19z M37.8,38.39c1.1-1.1,2.58-1.71,4.15-1.71
		c1.57,0,3.04,0.61,4.14,1.71c2.29,2.29,2.29,6,0,8.29c-1.1,1.1-2.57,1.71-4.14,1.71s-3.04-0.61-4.15-1.71
		c-1.11-1.11-1.71-2.58-1.71-4.15S36.7,39.5,37.8,38.39z M31.47,32.06c0.61-0.61,1.42-0.94,2.29-0.94s1.68,0.33,2.29,0.94
		c0.61,0.61,0.94,1.42,0.94,2.29c0,0.87-0.33,1.68-0.94,2.29c-1.22,1.22-3.36,1.22-4.57,0C30.21,35.37,30.21,33.32,31.47,32.06z
		 M30.53,50.73c0-0.87,0.33-1.68,0.94-2.29c0.61-0.61,1.42-0.94,2.29-0.94s1.68,0.33,2.29,0.94c0.61,0.61,0.94,1.42,0.94,2.29
		c0,0.87-0.33,1.68-0.94,2.29c-1.22,1.22-3.35,1.22-4.57,0C30.86,52.4,30.53,51.59,30.53,50.73z M31.47,102.14
		c-1.26-1.26-1.26-3.31,0-4.57c0.61-0.61,1.42-0.94,2.29-0.94s1.68,0.33,2.29,0.94c0.61,0.61,0.94,1.42,0.94,2.29
		s-0.33,1.68-0.94,2.29C34.83,103.36,32.69,103.36,31.47,102.14z M46.09,128.57c-1.1,1.1-2.57,1.71-4.14,1.71s-3.04-0.61-4.15-1.71
		c-2.29-2.29-2.29-6,0-8.29c1.1-1.1,2.58-1.71,4.15-1.71c1.57,0,3.04,0.61,4.14,1.71C48.38,122.56,48.38,126.28,46.09,128.57z
		 M47.85,118.52c-0.61-0.61-0.94-1.42-0.94-2.29c0-0.87,0.33-1.68,0.94-2.29c0.61-0.61,1.42-0.94,2.29-0.94s1.68,0.33,2.29,0.94
		c0.61,0.61,0.95,1.42,0.95,2.29s-0.34,1.68-0.95,2.29C51.2,119.74,49.06,119.74,47.85,118.52z M62.47,128.57
		c-1.1,1.1-2.58,1.71-4.15,1.71s-3.04-0.61-4.14-1.71c-1.1-1.1-1.71-2.58-1.71-4.15s0.61-3.04,1.71-4.14
		c1.1-1.1,2.57-1.71,4.14-1.71s3.04,0.61,4.15,1.71c1.1,1.1,1.71,2.57,1.71,4.14S63.57,127.47,62.47,128.57z M64.23,179.46
		c0.61-0.61,1.42-0.94,2.29-0.94s1.68,0.33,2.29,0.94c1.26,1.26,1.26,3.31,0,4.57c-1.22,1.22-3.36,1.22-4.57,0
		c-0.61-0.61-0.94-1.42-0.94-2.29S63.62,180.07,64.23,179.46z M54.18,185.79c1.1-1.1,2.57-1.71,4.14-1.71
		c1.57,0,3.04,0.61,4.15,1.71c1.1,1.1,1.71,2.58,1.71,4.14c0,1.57-0.61,3.04-1.71,4.14s-2.58,1.71-4.15,1.71s-3.04-0.61-4.14-1.71
		c-1.1-1.1-1.71-2.57-1.71-4.14C52.47,188.36,53.08,186.89,54.18,185.79z M46.09,210.45c-1.1,1.1-2.57,1.71-4.14,1.71
		c-1.57,0-3.04-0.61-4.15-1.71c-1.11-1.11-1.71-2.58-1.71-4.14c0-1.57,0.61-3.04,1.71-4.15c1.1-1.1,2.58-1.71,4.15-1.71
		c1.57,0,3.04,0.61,4.14,1.71c1.1,1.1,1.71,2.58,1.71,4.15S47.19,209.35,46.09,210.45z M46.09,194.08c-1.1,1.1-2.57,1.71-4.14,1.71
		c-1.57,0-3.04-0.61-4.15-1.71c-1.11-1.11-1.71-2.58-1.71-4.14s0.61-3.04,1.71-4.14c1.1-1.1,2.58-1.71,4.15-1.71
		c1.57,0,3.04,0.61,4.14,1.71c1.11,1.11,1.71,2.58,1.71,4.14S47.2,192.97,46.09,194.08z M47.85,184.03
		c-0.61-0.61-0.94-1.42-0.94-2.29s0.33-1.68,0.94-2.29c0.61-0.61,1.42-0.94,2.29-0.94c0.87,0,1.68,0.33,2.29,0.94
		c1.26,1.26,1.26,3.31,0,4.57C51.2,185.25,49.06,185.25,47.85,184.03z M62.47,210.45c-1.1,1.1-2.58,1.71-4.15,1.71
		c-1.57,0-3.04-0.61-4.14-1.71s-1.71-2.57-1.71-4.14s0.61-3.04,1.71-4.15c1.1-1.1,2.57-1.71,4.14-1.71s3.04,0.61,4.15,1.71
		c1.1,1.1,1.71,2.58,1.71,4.15C64.18,207.88,63.57,209.35,62.47,210.45z M64.23,200.41c-0.61-0.61-0.95-1.42-0.95-2.29
		c0-0.86,0.34-1.68,0.95-2.29c0.61-0.61,1.42-0.94,2.29-0.94s1.68,0.33,2.29,0.94c1.26,1.26,1.26,3.31,0,4.57
		C67.58,201.62,65.44,201.62,64.23,200.41z M78.85,210.45c-1.1,1.1-2.57,1.71-4.14,1.71c-1.57,0-3.04-0.61-4.14-1.71
		c-2.29-2.29-2.29-6,0-8.29c1.1-1.1,2.57-1.71,4.14-1.71c1.57,0,3.04,0.61,4.14,1.71c1.1,1.1,1.71,2.57,1.71,4.15
		C80.56,207.88,79.95,209.35,78.85,210.45z M80.6,200.41c-0.61-0.61-0.95-1.42-0.95-2.29c0-0.86,0.34-1.68,0.95-2.29
		c0.61-0.61,1.42-0.94,2.29-0.94c0.87,0,1.68,0.33,2.29,0.94c1.26,1.26,1.26,3.31,0,4.57C83.96,201.62,81.82,201.62,80.6,200.41z
		 M95.22,210.45c-1.1,1.1-2.58,1.71-4.15,1.71s-3.04-0.61-4.14-1.71c-1.1-1.1-1.71-2.58-1.71-4.14s0.61-3.04,1.71-4.15
		c1.1-1.1,2.57-1.71,4.14-1.71s3.04,0.61,4.15,1.71C97.51,204.45,97.51,208.17,95.22,210.45z M95.22,194.08
		c-1.1,1.1-2.58,1.71-4.15,1.71s-3.04-0.61-4.14-1.71c-1.11-1.11-1.71-2.58-1.71-4.14s0.61-3.04,1.71-4.14
		c1.1-1.1,2.57-1.71,4.14-1.71s3.04,0.61,4.15,1.71c1.11,1.11,1.71,2.58,1.71,4.14S96.33,192.97,95.22,194.08z M95.22,177.7
		c-1.1,1.1-2.58,1.71-4.15,1.71s-3.04-0.61-4.14-1.71c-2.29-2.29-2.29-6,0-8.29c1.1-1.1,2.57-1.71,4.14-1.71s3.04,0.61,4.15,1.71
		C97.51,171.7,97.51,175.41,95.22,177.7z M96.98,167.65c-0.61-0.61-0.95-1.42-0.95-2.29c0-0.87,0.34-1.68,0.95-2.29
		s1.42-0.94,2.29-0.94c0.87,0,1.68,0.33,2.29,0.94c0.61,0.61,0.94,1.42,0.94,2.29c0,0.87-0.33,1.68-0.94,2.29
		C100.34,168.87,98.2,168.87,96.98,167.65z M111.6,210.45c-1.1,1.1-2.58,1.71-4.14,1.71s-3.04-0.61-4.15-1.71
		c-1.11-1.11-1.71-2.58-1.71-4.14c0-1.57,0.61-3.04,1.71-4.15c1.1-1.1,2.58-1.71,4.15-1.71s3.04,0.61,4.14,1.71s1.71,2.58,1.71,4.15
		S112.7,209.35,111.6,210.45z M118.87,214.5c0,0.87-0.33,1.68-0.94,2.29c-1.22,1.22-3.35,1.22-4.57,0c-1.26-1.26-1.26-3.31,0-4.57
		c0.61-0.61,1.42-0.94,2.29-0.94s1.68,0.33,2.29,0.94C118.54,212.82,118.87,213.63,118.87,214.5z M118.88,198.12
		c0,0.87-0.34,1.68-0.95,2.29c-1.21,1.22-3.36,1.22-4.57,0c-1.26-1.26-1.26-3.31,0-4.57c0.61-0.61,1.42-0.94,2.29-0.94
		s1.68,0.33,2.29,0.94C118.54,196.44,118.88,197.26,118.88,198.12z M127.98,161.32c-1.1,1.1-2.57,1.71-4.15,1.71
		c-1.57,0-3.04-0.61-4.14-1.71c-2.29-2.29-2.29-6,0-8.29c1.1-1.1,2.58-1.71,4.14-1.71c1.57,0,3.04,0.61,4.15,1.71
		C130.26,155.32,130.26,159.04,127.98,161.32z M129.73,151.28c-0.61-0.61-0.94-1.42-0.94-2.29c0-0.87,0.33-1.68,0.94-2.29
		c0.61-0.61,1.42-0.94,2.29-0.94s1.68,0.33,2.29,0.94c0.61,0.61,0.94,1.42,0.94,2.29c0,0.87-0.33,1.68-0.94,2.29
		C133.09,152.49,130.95,152.49,129.73,151.28z M144.35,161.32c-1.1,1.1-2.58,1.71-4.15,1.71s-3.04-0.61-4.14-1.71
		c-1.11-1.11-1.71-2.58-1.71-4.14s0.61-3.04,1.71-4.15c1.1-1.1,2.57-1.71,4.14-1.71s3.04,0.61,4.15,1.71
		C146.64,155.32,146.64,159.04,144.35,161.32z M144.35,144.95c-1.1,1.1-2.58,1.71-4.15,1.71s-3.04-0.61-4.14-1.71
		c-1.11-1.11-1.71-2.58-1.71-4.15s0.61-3.04,1.71-4.15c1.1-1.1,2.57-1.71,4.14-1.71s3.04,0.61,4.15,1.71
		c1.11,1.11,1.71,2.58,1.71,4.15S145.46,143.84,144.35,144.95z M144.35,128.57c-1.1,1.1-2.58,1.71-4.15,1.71s-3.04-0.61-4.14-1.71
		c-1.11-1.11-1.71-2.58-1.71-4.15c0-1.57,0.61-3.04,1.71-4.15c1.1-1.1,2.57-1.71,4.14-1.71s3.04,0.61,4.15,1.71
		C146.64,122.56,146.64,126.28,144.35,128.57z M146.11,118.52c-1.26-1.26-1.26-3.31,0-4.57c0.61-0.61,1.42-0.94,2.29-0.94
		c0.87,0,1.68,0.33,2.29,0.94c0.61,0.61,0.94,1.42,0.94,2.29c0,0.87-0.33,1.68-0.94,2.29C149.47,119.74,147.33,119.74,146.11,118.52
		z M152.44,120.28c1.1-1.1,2.57-1.71,4.14-1.71c1.57,0,3.04,0.61,4.15,1.71c1.1,1.1,1.71,2.57,1.71,4.15c0,1.57-0.61,3.04-1.71,4.15
		c-1.1,1.1-2.58,1.71-4.14,1.71s-3.04-0.61-4.14-1.71c-1.11-1.1-1.71-2.58-1.71-4.15C150.73,122.86,151.34,121.38,152.44,120.28z
		 M160.73,210.45c-1.1,1.1-2.58,1.71-4.15,1.71c-1.57,0-3.04-0.61-4.14-1.71c-1.1-1.1-1.71-2.57-1.71-4.14s0.61-3.04,1.71-4.15
		s2.57-1.71,4.14-1.71c1.57,0,3.04,0.61,4.15,1.71C163.02,204.45,163.02,208.17,160.73,210.45z M167.06,200.41
		c-1.22,1.22-3.36,1.22-4.57,0c-0.61-0.61-0.94-1.42-0.94-2.29s0.33-1.68,0.94-2.29c0.61-0.61,1.42-0.94,2.29-0.94
		c0.87,0,1.68,0.33,2.29,0.94C168.32,197.09,168.32,199.15,167.06,200.41z M167.06,184.03c-1.22,1.22-3.36,1.22-4.57,0
		c-0.61-0.61-0.94-1.42-0.94-2.29s0.33-1.68,0.94-2.29c0.61-0.61,1.42-0.94,2.29-0.94c0.87,0,1.68,0.33,2.29,0.94
		C168.32,180.72,168.32,182.77,167.06,184.03z M177.11,177.7c-1.1,1.1-2.58,1.71-4.15,1.71s-3.04-0.61-4.14-1.71
		c-2.29-2.29-2.29-6,0-8.29c1.1-1.1,2.57-1.71,4.14-1.71s3.04,0.61,4.15,1.71C179.39,171.7,179.39,175.41,177.11,177.7z
		 M178.87,167.65c-0.61-0.61-0.95-1.42-0.95-2.29c0-0.87,0.34-1.68,0.95-2.29s1.42-0.94,2.29-0.94c0.87,0,1.68,0.33,2.29,0.94
		s0.95,1.42,0.95,2.29c0,0.86-0.34,1.68-0.95,2.29C182.22,168.87,180.08,168.87,178.87,167.65z M193.49,177.7
		c-1.1,1.1-2.58,1.71-4.14,1.71c-1.57,0-3.04-0.61-4.14-1.71c-1.1-1.1-1.71-2.57-1.71-4.14c0-1.57,0.61-3.04,1.71-4.15
		c1.1-1.1,2.57-1.71,4.14-1.71s3.04,0.61,4.14,1.71c1.11,1.11,1.71,2.58,1.71,4.15C195.2,175.12,194.59,176.59,193.49,177.7z
		 M193.49,161.32c-1.1,1.1-2.57,1.71-4.14,1.71s-3.04-0.61-4.15-1.71c-1.1-1.1-1.71-2.57-1.71-4.14c0-1.57,0.61-3.04,1.71-4.15
		c1.1-1.1,2.58-1.71,4.15-1.71c1.57,0,3.04,0.61,4.14,1.71C195.77,155.32,195.77,159.04,193.49,161.32z M193.49,144.95
		c-1.1,1.1-2.57,1.71-4.14,1.71c-1.57,0-3.04-0.61-4.14-1.71c-1.1-1.1-1.71-2.57-1.71-4.14s0.61-3.04,1.71-4.15
		c1.1-1.1,2.57-1.71,4.14-1.71c1.57,0,3.04,0.61,4.14,1.71c1.11,1.11,1.71,2.58,1.71,4.15S194.59,143.84,193.49,144.95z
		 M193.49,128.57c-1.1,1.1-2.58,1.71-4.14,1.71c-1.57,0-3.04-0.61-4.14-1.71c-1.1-1.1-1.71-2.57-1.71-4.15s0.61-3.04,1.71-4.14
		c1.1-1.1,2.57-1.71,4.14-1.71c1.57,0,3.04,0.61,4.14,1.71C195.77,122.56,195.77,126.28,193.49,128.57z M193.49,112.19
		c-1.1,1.1-2.58,1.71-4.14,1.71c-1.57,0-3.04-0.61-4.14-1.71c-1.1-1.1-1.71-2.57-1.71-4.14c0-1.57,0.61-3.04,1.71-4.15
		c1.1-1.1,2.57-1.71,4.14-1.71c1.57,0,3.04,0.61,4.14,1.71C195.77,106.19,195.77,109.91,193.49,112.19z M193.49,95.81
		c-1.1,1.1-2.57,1.71-4.14,1.71c-1.57,0-3.04-0.61-4.14-1.71c-1.1-1.1-1.71-2.57-1.71-4.14s0.61-3.04,1.71-4.14
		c1.1-1.1,2.57-1.71,4.14-1.71c1.57,0,3.04,0.61,4.14,1.71c1.11,1.11,1.71,2.58,1.71,4.14S194.59,94.71,193.49,95.81z M193.49,79.44
		c-1.1,1.1-2.58,1.71-4.14,1.71c-1.57,0-3.04-0.61-4.14-1.71c-1.1-1.1-1.71-2.57-1.71-4.15c0-1.57,0.61-3.04,1.71-4.14
		c1.1-1.1,2.57-1.71,4.14-1.71c1.57,0,3.04,0.61,4.14,1.71C195.77,73.43,195.77,77.15,193.49,79.44z M193.49,63.06
		c-1.1,1.1-2.57,1.71-4.14,1.71s-3.04-0.61-4.15-1.71s-1.71-2.57-1.71-4.14s0.61-3.04,1.71-4.15s2.58-1.71,4.15-1.71
		c1.57,0,3.04,0.61,4.14,1.71c1.11,1.11,1.71,2.58,1.71,4.15S194.59,61.95,193.49,63.06z M193.49,46.68
		c-1.1,1.1-2.58,1.71-4.14,1.71c-1.57,0-3.04-0.61-4.14-1.71c-1.1-1.1-1.71-2.57-1.71-4.15s0.61-3.04,1.71-4.14
		c1.1-1.1,2.57-1.71,4.14-1.71c1.57,0,3.04,0.61,4.14,1.71c1.11,1.11,1.71,2.58,1.71,4.15S194.59,45.58,193.49,46.68z M260.75,32.06
		c0.61-0.61,1.42-0.94,2.29-0.94s1.68,0.33,2.29,0.94c0.61,0.61,0.95,1.42,0.95,2.29s-0.34,1.68-0.95,2.29
		c-1.22,1.22-3.36,1.22-4.57,0c-0.61-0.61-0.94-1.42-0.94-2.29C259.81,33.48,260.14,32.67,260.75,32.06z M250.7,38.39
		c1.1-1.1,2.57-1.71,4.14-1.71s3.04,0.61,4.15,1.71s1.71,2.57,1.71,4.14s-0.61,3.04-1.71,4.15s-2.58,1.71-4.15,1.71
		c-1.57,0-3.04-0.61-4.14-1.71C248.42,44.4,248.42,40.68,250.7,38.39z M242.62,161.32c-1.1,1.1-2.57,1.71-4.14,1.71
		c-1.57,0-3.04-0.61-4.15-1.71c-1.1-1.1-1.71-2.57-1.71-4.14c0-1.57,0.61-3.04,1.71-4.15c1.1-1.1,2.57-1.71,4.15-1.71
		c1.57,0,3.04,0.61,4.14,1.71c1.1,1.1,1.71,2.58,1.71,4.15C244.33,158.75,243.72,160.22,242.62,161.32z M244.33,173.56
		c0,1.57-0.61,3.04-1.71,4.14c-1.1,1.1-2.58,1.71-4.14,1.71c-1.57,0-3.04-0.61-4.15-1.71s-1.71-2.57-1.71-4.14
		c0-1.57,0.61-3.04,1.71-4.15c1.1-1.1,2.57-1.71,4.15-1.71c1.57,0,3.04,0.61,4.14,1.71C243.72,170.51,244.33,171.98,244.33,173.56z
		 M242.62,144.95c-1.1,1.1-2.57,1.71-4.14,1.71c-1.57,0-3.04-0.61-4.15-1.71c-1.1-1.1-1.71-2.57-1.71-4.14s0.61-3.04,1.71-4.15
		s2.57-1.71,4.15-1.71c1.57,0,3.04,0.61,4.14,1.71c1.1,1.1,1.71,2.58,1.71,4.15S243.72,143.84,242.62,144.95z M222.1,81.15
		c-1.57,0-3.04-0.61-4.15-1.71c-2.29-2.29-2.29-6,0-8.29c1.1-1.1,2.58-1.71,4.15-1.71s3.04,0.61,4.15,1.71c2.29,2.29,2.29,6,0,8.29
		C225.14,80.54,223.67,81.15,222.1,81.15z M226.24,95.81c-1.1,1.1-2.58,1.71-4.15,1.71s-3.04-0.61-4.15-1.71
		c-1.1-1.1-1.71-2.57-1.71-4.14s0.61-3.04,1.71-4.14c1.1-1.1,2.58-1.71,4.15-1.71s3.04,0.61,4.15,1.71
		C228.53,89.81,228.53,93.53,226.24,95.81z M226.24,63.06c-1.1,1.1-2.58,1.71-4.15,1.71s-3.04-0.61-4.15-1.71
		c-1.1-1.1-1.71-2.57-1.71-4.14s0.61-3.04,1.71-4.15c1.1-1.1,2.58-1.71,4.15-1.71s3.04,0.61,4.15,1.71c1.1,1.1,1.71,2.58,1.71,4.15
		S227.34,61.96,226.24,63.06z M217.14,67.1c0,0.87-0.33,1.68-0.94,2.29c-1.21,1.22-3.36,1.22-4.57,0c-0.61-0.61-0.94-1.42-0.94-2.29
		c0-0.87,0.33-1.68,0.94-2.29c0.61-0.61,1.42-0.94,2.29-0.94s1.68,0.33,2.29,0.94C216.8,65.43,217.14,66.24,217.14,67.1z
		 M213.91,80.25c0.87,0,1.68,0.33,2.29,0.94c0.61,0.61,0.95,1.42,0.95,2.29s-0.34,1.68-0.95,2.29c-1.22,1.22-3.36,1.22-4.57,0
		c-0.61-0.61-0.95-1.42-0.95-2.29s0.34-1.68,0.95-2.29C212.23,80.59,213.04,80.25,213.91,80.25z M213.91,96.63
		c0.87,0,1.68,0.33,2.29,0.94c0.61,0.61,0.94,1.42,0.94,2.29s-0.33,1.68-0.94,2.29c-1.22,1.22-3.36,1.22-4.57,0
		c-1.26-1.26-1.26-3.31,0-4.57C212.23,96.96,213.04,96.63,213.91,96.63z M213.91,113c0.87,0,1.68,0.33,2.29,0.94
		c0.61,0.61,0.94,1.42,0.94,2.29c0,0.87-0.33,1.68-0.94,2.29c-1.22,1.22-3.36,1.22-4.57,0c-0.61-0.61-0.95-1.42-0.95-2.29
		s0.34-1.68,0.95-2.29C212.23,113.34,213.04,113,213.91,113z M213.91,145.76c0.87,0,1.68,0.33,2.29,0.94
		c0.61,0.61,0.94,1.42,0.94,2.29s-0.33,1.68-0.94,2.29c-1.21,1.22-3.36,1.22-4.57,0c-0.61-0.61-0.94-1.42-0.94-2.29
		c0-0.87,0.33-1.68,0.94-2.29C212.23,146.09,213.04,145.76,213.91,145.76z M216.24,140.8c0-1.57,0.61-3.04,1.71-4.15
		c1.1-1.1,2.58-1.71,4.15-1.71s3.04,0.61,4.15,1.71c2.29,2.29,2.29,6,0,8.29c-1.1,1.1-2.58,1.71-4.15,1.71s-3.04-0.61-4.15-1.71
		C216.84,143.84,216.24,142.37,216.24,140.8z M226.24,128.57c-1.1,1.1-2.58,1.71-4.15,1.71s-3.04-0.61-4.15-1.71
		c-2.29-2.29-2.29-6,0-8.29c1.1-1.1,2.58-1.71,4.15-1.71s3.04,0.61,4.15,1.71C228.53,122.56,228.53,126.28,226.24,128.57z
		 M226.24,112.19c-1.1,1.1-2.58,1.71-4.15,1.71s-3.04-0.61-4.15-1.71c-1.11-1.11-1.71-2.58-1.71-4.14c0-1.57,0.61-3.04,1.71-4.15
		c1.1-1.1,2.58-1.71,4.15-1.71s3.04,0.61,4.15,1.71C228.53,106.19,228.53,109.91,226.24,112.19z M227.05,99.86
		c0-0.87,0.33-1.68,0.94-2.29c0.61-0.61,1.42-0.94,2.29-0.94s1.68,0.33,2.29,0.94c1.26,1.26,1.26,3.31,0,4.57
		c-1.22,1.22-3.36,1.22-4.57,0C227.39,101.54,227.05,100.72,227.05,99.86z M243.43,99.86c0-0.87,0.33-1.68,0.94-2.29
		c0.61-0.61,1.42-0.94,2.29-0.94s1.68,0.33,2.29,0.94c1.26,1.26,1.26,3.31,0,4.57c-1.22,1.22-3.36,1.22-4.57,0
		C243.76,101.54,243.43,100.72,243.43,99.86z M244.33,108.05c0,1.57-0.61,3.04-1.71,4.14c-1.1,1.1-2.58,1.71-4.14,1.71
		c-1.57,0-3.04-0.61-4.15-1.71s-1.71-2.57-1.71-4.14s0.61-3.04,1.71-4.15s2.57-1.71,4.15-1.71c1.57,0,3.04,0.61,4.14,1.71
		C243.72,105,244.33,106.48,244.33,108.05z M244.37,85.77c-0.61-0.61-0.94-1.42-0.94-2.29c0-0.87,0.33-1.68,0.94-2.29
		c0.61-0.61,1.42-0.94,2.29-0.94s1.68,0.33,2.29,0.94c1.26,1.26,1.26,3.31,0,4.57C247.73,86.98,245.59,86.98,244.37,85.77z
		 M244.33,91.67c0,1.57-0.61,3.04-1.71,4.14c-1.1,1.1-2.57,1.71-4.14,1.71c-1.57,0-3.04-0.61-4.15-1.71
		c-1.1-1.1-1.71-2.57-1.71-4.14s0.61-3.04,1.71-4.14c1.1-1.1,2.57-1.71,4.15-1.71c1.57,0,3.04,0.61,4.14,1.71
		S244.33,90.1,244.33,91.67z M242.62,128.57c-1.1,1.1-2.58,1.71-4.14,1.71c-1.57,0-3.04-0.61-4.15-1.71
		c-1.1-1.1-1.71-2.58-1.71-4.15s0.61-3.04,1.71-4.14c1.1-1.1,2.57-1.71,4.15-1.71c1.57,0,3.04,0.61,4.14,1.71s1.71,2.57,1.71,4.14
		S243.72,127.47,242.62,128.57z M243.43,116.23c0-0.87,0.33-1.68,0.94-2.29c0.61-0.61,1.42-0.94,2.29-0.94s1.68,0.33,2.29,0.94
		c1.26,1.26,1.26,3.31,0,4.57c-1.22,1.22-3.36,1.22-4.57,0C243.76,117.91,243.43,117.1,243.43,116.23z M258.99,161.32
		c-1.1,1.1-2.58,1.71-4.15,1.71s-3.04-0.61-4.14-1.71c-1.1-1.1-1.71-2.57-1.71-4.14c0-1.57,0.61-3.04,1.71-4.15
		c1.1-1.1,2.58-1.71,4.14-1.71c1.57,0,3.04,0.61,4.15,1.71c1.1,1.1,1.71,2.58,1.71,4.15C260.7,158.75,260.1,160.22,258.99,161.32z
		 M260.7,173.56c0,1.57-0.61,3.04-1.71,4.14c-1.1,1.1-2.58,1.71-4.15,1.71s-3.04-0.61-4.14-1.71c-2.29-2.29-2.29-6,0-8.29
		c1.1-1.1,2.57-1.71,4.14-1.71s3.04,0.61,4.15,1.71C260.1,170.51,260.7,171.98,260.7,173.56z M254.85,146.66
		c-1.57,0-3.04-0.61-4.14-1.71c-2.29-2.29-2.29-6,0-8.29c1.1-1.1,2.58-1.71,4.14-1.71c1.57,0,3.04,0.61,4.15,1.71
		c1.1,1.1,1.71,2.58,1.71,4.15s-0.61,3.04-1.71,4.14S256.42,146.66,254.85,146.66z M258.99,128.57c-1.1,1.1-2.58,1.71-4.15,1.71
		c-1.57,0-3.04-0.61-4.14-1.71c-2.29-2.29-2.29-6,0-8.29c1.1-1.1,2.57-1.71,4.14-1.71s3.04,0.61,4.15,1.71
		c1.1,1.1,1.71,2.57,1.71,4.14C260.7,125.99,260.1,127.47,258.99,128.57z M258.99,112.19c-1.1,1.1-2.58,1.71-4.15,1.71
		c-1.57,0-3.04-0.61-4.14-1.71c-2.29-2.29-2.29-6,0-8.29c1.1-1.1,2.58-1.71,4.14-1.71c1.57,0,3.04,0.61,4.15,1.71
		c1.1,1.1,1.71,2.57,1.71,4.15S260.1,111.09,258.99,112.19z M258.99,95.81c-1.1,1.1-2.58,1.71-4.15,1.71s-3.04-0.61-4.14-1.71
		c-1.1-1.1-1.71-2.57-1.71-4.14s0.61-3.04,1.71-4.14c1.1-1.1,2.57-1.71,4.14-1.71s3.04,0.61,4.15,1.71c1.1,1.1,1.71,2.57,1.71,4.14
		S260.1,94.71,258.99,95.81z M258.99,79.44c-1.1,1.1-2.58,1.71-4.15,1.71c-1.57,0-3.04-0.61-4.14-1.71c-2.29-2.29-2.29-6,0-8.29
		c1.1-1.1,2.58-1.71,4.14-1.71c1.57,0,3.04,0.61,4.15,1.71c1.1,1.1,1.71,2.57,1.71,4.14C260.7,76.86,260.1,78.33,258.99,79.44z
		 M258.99,63.06c-1.1,1.1-2.58,1.71-4.15,1.71s-3.04-0.61-4.14-1.71c-1.1-1.1-1.71-2.57-1.71-4.14c0-1.57,0.61-3.04,1.71-4.15
		s2.58-1.71,4.14-1.71c1.57,0,3.04,0.61,4.15,1.71s1.71,2.57,1.71,4.15C260.7,60.49,260.1,61.96,258.99,63.06z M244.37,32.06
		c0.61-0.61,1.42-0.94,2.29-0.94s1.68,0.33,2.29,0.94c1.26,1.26,1.26,3.31,0,4.57c-1.22,1.22-3.36,1.22-4.57,0
		c-0.61-0.61-0.94-1.42-0.94-2.29C243.43,33.48,243.76,32.67,244.37,32.06z M234.33,38.39c1.1-1.1,2.57-1.71,4.15-1.71
		c1.57,0,3.04,0.61,4.14,1.71s1.71,2.57,1.71,4.14s-0.61,3.04-1.71,4.15s-2.58,1.71-4.14,1.71c-1.57,0-3.04-0.61-4.15-1.71
		c-1.1-1.1-1.71-2.58-1.71-4.15S233.22,39.49,234.33,38.39z M234.33,54.77c1.1-1.1,2.57-1.71,4.15-1.71c1.57,0,3.04,0.61,4.14,1.71
		s1.71,2.58,1.71,4.15s-0.61,3.04-1.71,4.14s-2.57,1.71-4.14,1.71c-1.57,0-3.04-0.61-4.15-1.71c-1.1-1.1-1.71-2.57-1.71-4.14
		S233.22,55.87,234.33,54.77z M234.33,71.15c1.1-1.1,2.57-1.71,4.15-1.71c1.57,0,3.04,0.61,4.14,1.71c1.1,1.1,1.71,2.57,1.71,4.14
		c0,1.57-0.61,3.04-1.71,4.15c-1.1,1.1-2.58,1.71-4.14,1.71c-1.57,0-3.04-0.61-4.15-1.71s-1.71-2.57-1.71-4.15
		C232.62,73.72,233.22,72.25,234.33,71.15z M230.28,80.25c0.87,0,1.68,0.33,2.29,0.94c1.26,1.26,1.26,3.31,0,4.57
		c-1.22,1.22-3.36,1.22-4.57,0c-0.61-0.61-0.94-1.42-0.94-2.29c0-0.87,0.33-1.68,0.94-2.29C228.6,80.59,229.42,80.25,230.28,80.25z
		 M217.95,38.39c1.1-1.1,2.58-1.71,4.15-1.71s3.04,0.61,4.15,1.71c2.29,2.29,2.29,6,0,8.29c-1.1,1.1-2.58,1.71-4.15,1.71
		s-3.04-0.61-4.15-1.71C215.66,44.4,215.66,40.68,217.95,38.39z M213.91,47.5c0.87,0,1.68,0.33,2.29,0.94
		c0.61,0.61,0.94,1.42,0.94,2.29c0,0.87-0.33,1.68-0.94,2.29c-1.22,1.22-3.36,1.22-4.57,0c-0.61-0.61-0.94-1.42-0.94-2.29
		s0.33-1.68,0.94-2.29C212.23,47.83,213.04,47.5,213.91,47.5z M201.57,38.39c1.1-1.1,2.58-1.71,4.15-1.71
		c1.57,0,3.04,0.61,4.14,1.71c1.11,1.11,1.71,2.58,1.71,4.15s-0.61,3.04-1.71,4.15c-1.1,1.1-2.57,1.71-4.14,1.71
		s-3.04-0.61-4.15-1.71s-1.71-2.58-1.71-4.15S200.47,39.49,201.57,38.39z M201.57,54.77c1.1-1.1,2.58-1.71,4.15-1.71
		s3.04,0.61,4.14,1.71c1.1,1.1,1.71,2.58,1.71,4.15s-0.61,3.04-1.71,4.14c-1.1,1.1-2.57,1.71-4.14,1.71s-3.04-0.61-4.15-1.71
		s-1.71-2.57-1.71-4.14S200.47,55.87,201.57,54.77z M201.57,71.15c1.1-1.1,2.58-1.71,4.15-1.71s3.04,0.61,4.14,1.71
		c2.29,2.29,2.29,6,0,8.29c-1.1,1.1-2.57,1.71-4.14,1.71s-3.04-0.61-4.15-1.71c-1.1-1.1-1.71-2.57-1.71-4.15
		C199.86,73.72,200.47,72.25,201.57,71.15z M201.57,87.52c1.1-1.1,2.58-1.71,4.15-1.71c1.57,0,3.04,0.61,4.14,1.71
		c2.29,2.29,2.29,6,0,8.29c-1.1,1.1-2.57,1.71-4.14,1.71c-1.57,0-3.04-0.61-4.15-1.71c-1.1-1.1-1.71-2.57-1.71-4.14
		S200.47,88.63,201.57,87.52z M201.57,103.9c1.1-1.1,2.58-1.71,4.15-1.71s3.04,0.61,4.14,1.71c2.29,2.29,2.29,6,0,8.29
		c-1.1,1.1-2.57,1.71-4.14,1.71s-3.04-0.61-4.15-1.71c-1.1-1.1-1.71-2.57-1.71-4.14S200.47,105,201.57,103.9z M201.57,120.28
		c1.1-1.1,2.58-1.71,4.15-1.71c1.57,0,3.04,0.61,4.14,1.71c2.29,2.29,2.29,6,0,8.29c-1.1,1.1-2.57,1.71-4.14,1.71
		s-3.04-0.61-4.15-1.71s-1.71-2.58-1.71-4.15S200.47,121.38,201.57,120.28z M201.57,136.66c1.1-1.1,2.58-1.71,4.15-1.71
		s3.04,0.61,4.14,1.71c2.29,2.29,2.29,6,0,8.29c-1.1,1.1-2.57,1.71-4.14,1.71c-1.57,0-3.04-0.61-4.15-1.71s-1.71-2.57-1.71-4.14
		S200.47,137.76,201.57,136.66z M201.57,153.03c1.1-1.1,2.58-1.71,4.15-1.71s3.04,0.61,4.14,1.71c2.29,2.29,2.29,6,0,8.29
		c-1.1,1.1-2.57,1.71-4.14,1.71s-3.04-0.61-4.15-1.71c-1.1-1.1-1.71-2.57-1.71-4.14C199.86,155.61,200.47,154.13,201.57,153.03z
		 M209.86,177.7c-1.1,1.1-2.57,1.71-4.14,1.71c-1.57,0-3.04-0.61-4.15-1.71c-1.1-1.1-1.71-2.57-1.71-4.14
		c0-1.57,0.61-3.04,1.71-4.15c1.1-1.1,2.58-1.71,4.15-1.71s3.04,0.61,4.14,1.71C212.15,171.7,212.15,175.41,209.86,177.7z
		 M211.62,167.65c-0.61-0.61-0.95-1.42-0.95-2.29c0-0.87,0.34-1.68,0.95-2.29c0.61-0.61,1.42-0.94,2.29-0.94s1.68,0.33,2.29,0.94
		c0.61,0.61,0.94,1.42,0.94,2.29c0,0.87-0.33,1.68-0.94,2.29C214.98,168.87,212.84,168.87,211.62,167.65z M226.24,210.45
		c-1.1,1.1-2.58,1.71-4.15,1.71s-3.04-0.61-4.15-1.71c-2.29-2.29-2.29-6,0-8.29c1.1-1.1,2.58-1.71,4.15-1.71s3.04,0.61,4.15,1.71
		C228.53,204.45,228.53,208.17,226.24,210.45z M226.24,194.08c-1.1,1.1-2.58,1.71-4.15,1.71s-3.04-0.61-4.15-1.71
		c-1.11-1.11-1.71-2.58-1.71-4.14s0.61-3.04,1.71-4.14c1.1-1.1,2.58-1.71,4.15-1.71s3.04,0.61,4.15,1.71
		c1.11,1.11,1.71,2.58,1.71,4.14S227.35,192.97,226.24,194.08z M226.24,177.7c-1.1,1.1-2.58,1.71-4.15,1.71s-3.04-0.61-4.15-1.71
		c-1.11-1.11-1.71-2.58-1.71-4.14c0-1.57,0.61-3.04,1.71-4.15c1.1-1.1,2.58-1.71,4.15-1.71s3.04,0.61,4.15,1.71
		C228.53,171.7,228.53,175.41,226.24,177.7z M226.24,161.32c-1.1,1.1-2.58,1.71-4.15,1.71s-3.04-0.61-4.15-1.71
		c-2.29-2.29-2.29-6,0-8.29c1.1-1.1,2.58-1.71,4.15-1.71s3.04,0.61,4.15,1.71C228.53,155.32,228.53,159.04,226.24,161.32z
		 M228,151.28c-0.61-0.61-0.94-1.42-0.94-2.29s0.33-1.68,0.94-2.29c0.61-0.61,1.42-0.94,2.29-0.94s1.68,0.33,2.29,0.94
		c0.61,0.61,0.94,1.42,0.94,2.29s-0.33,1.68-0.94,2.29C231.35,152.49,229.21,152.49,228,151.28z M242.62,210.45
		c-1.1,1.1-2.58,1.71-4.14,1.71c-1.57,0-3.04-0.61-4.15-1.71s-1.71-2.57-1.71-4.14s0.61-3.04,1.71-4.15c1.1-1.1,2.57-1.71,4.15-1.71
		c1.57,0,3.04,0.61,4.14,1.71s1.71,2.58,1.71,4.15S243.72,209.35,242.62,210.45z M242.62,194.08c-1.1,1.1-2.57,1.71-4.14,1.71
		c-1.57,0-3.04-0.61-4.15-1.71c-1.1-1.1-1.71-2.57-1.71-4.14c0-1.57,0.61-3.04,1.71-4.14c1.1-1.1,2.57-1.71,4.15-1.71
		c1.57,0,3.04,0.61,4.14,1.71s1.71,2.57,1.71,4.14C244.33,191.5,243.72,192.97,242.62,194.08z M244.37,184.03
		c-0.61-0.61-0.94-1.42-0.94-2.29s0.33-1.68,0.94-2.29c0.61-0.61,1.42-0.94,2.29-0.94s1.68,0.33,2.29,0.94
		c1.26,1.26,1.26,3.31,0,4.57C247.73,185.25,245.59,185.25,244.37,184.03z M250.7,185.79c1.1-1.1,2.57-1.71,4.14-1.71
		s3.04,0.61,4.15,1.71s1.71,2.57,1.71,4.14c0,1.57-0.61,3.04-1.71,4.14c-1.1,1.1-2.58,1.71-4.15,1.71s-3.04-0.61-4.14-1.71
		c-1.11-1.11-1.71-2.58-1.71-4.14S249.6,186.89,250.7,185.79z M258.99,210.45c-1.1,1.1-2.58,1.71-4.15,1.71s-3.04-0.61-4.14-1.71
		c-1.1-1.1-1.71-2.57-1.71-4.14s0.61-3.04,1.71-4.15s2.57-1.71,4.14-1.71s3.04,0.61,4.15,1.71s1.71,2.58,1.71,4.15
		S260.1,209.35,258.99,210.45z M266.27,214.5c0,0.87-0.33,1.68-0.94,2.29c-1.21,1.22-3.35,1.22-4.57,0c-1.26-1.26-1.26-3.31,0-4.57
		c0.61-0.61,1.42-0.94,2.29-0.94c0.87,0,1.68,0.33,2.29,0.94C265.93,212.82,266.27,213.63,266.27,214.5z M266.27,198.12
		c0,0.87-0.33,1.68-0.94,2.29c-1.22,1.22-3.35,1.22-4.57,0c-0.61-0.61-0.94-1.42-0.94-2.29s0.33-1.68,0.94-2.29
		c0.61-0.61,1.42-0.94,2.29-0.94c0.87,0,1.68,0.33,2.29,0.94C265.93,196.44,266.27,197.25,266.27,198.12z M265.32,184.03
		c-1.22,1.22-3.36,1.22-4.57,0c-0.61-0.61-0.94-1.42-0.94-2.29s0.33-1.68,0.94-2.29c0.61-0.61,1.42-0.94,2.29-0.94
		c0.87,0,1.68,0.33,2.29,0.94C266.59,180.72,266.59,182.77,265.32,184.03z M266.27,148.99c0,0.87-0.33,1.68-0.94,2.29
		c-1.22,1.22-3.36,1.22-4.57,0c-0.61-0.61-0.94-1.42-0.94-2.29c0-0.87,0.33-1.68,0.94-2.29c0.61-0.61,1.42-0.94,2.29-0.94
		s1.68,0.33,2.29,0.94C265.93,147.31,266.27,148.12,266.27,148.99z M265.32,53.01c-1.22,1.22-3.36,1.22-4.57,0
		c-0.61-0.61-0.94-1.42-0.94-2.29s0.33-1.68,0.94-2.29c0.61-0.61,1.42-0.94,2.29-0.94c0.87,0,1.68,0.33,2.29,0.94
		c0.61,0.61,0.94,1.42,0.94,2.29S265.93,52.4,265.32,53.01z"/>
	<path class="st1" d="M50.16,165.39c4.53-4.53,4.53-11.9,0-16.43c-2.19-2.18-5.1-3.39-8.21-3.39c-3.11,0-6.03,1.2-8.21,3.39
		c-4.53,4.53-4.53,11.9,0,16.43c2.18,2.18,5.1,3.39,8.21,3.39C45.06,168.78,47.97,167.57,50.16,165.39z"/>
	<path class="st1" d="M189.49,194.99c-3.12,0-6.05,1.21-8.26,3.42c-2.18,2.18-3.4,5.09-3.42,8.18s1.16,5.98,3.31,8.14
		c2.14,2.14,5,3.31,8.07,3.31c3.12,0,6.05-1.21,8.26-3.42c2.19-2.19,3.41-5.09,3.43-8.18c0.02-3.09-1.16-5.98-3.32-8.14
		C195.42,196.16,192.55,194.99,189.49,194.99z"/>
</g>
<g>
	<path class="st2" d="M151.44,261.96l-1.02-0.25c-0.56-0.14-0.83-0.38-0.83-0.72c0-0.22,0.09-0.4,0.27-0.54
		c0.18-0.14,0.43-0.21,0.77-0.21c0.58,0,0.95,0.23,1.11,0.68l1.03-0.25c-0.11-0.41-0.37-0.73-0.78-0.96
		c-0.41-0.23-0.87-0.34-1.38-0.34c-0.62,0-1.13,0.16-1.53,0.48c-0.4,0.32-0.6,0.75-0.6,1.29c0,0.27,0.06,0.52,0.17,0.76
		c0.11,0.24,0.26,0.42,0.45,0.55c0.19,0.13,0.48,0.25,0.87,0.35l1.15,0.3c0.31,0.08,0.51,0.19,0.6,0.33
		c0.09,0.14,0.14,0.29,0.14,0.46c0,0.23-0.1,0.41-0.31,0.57c-0.21,0.15-0.5,0.23-0.88,0.23c-0.84,0-1.32-0.3-1.45-0.89l-1.05,0.22
		c0.15,0.53,0.44,0.92,0.89,1.16c0.45,0.25,0.97,0.37,1.56,0.37c0.71,0,1.28-0.17,1.72-0.51s0.67-0.8,0.67-1.39
		c0-0.37-0.11-0.7-0.32-1C152.47,262.35,152.06,262.12,151.44,261.96z"/>
	<path class="st2" d="M158.08,263.31c0,0.5-0.1,0.84-0.3,1.02c-0.2,0.18-0.47,0.27-0.81,0.27c-0.29,0-0.55-0.08-0.77-0.25
		c-0.22-0.17-0.33-0.51-0.33-1.04v-3.85h-1.1v3.93c0,0.47,0.07,0.86,0.21,1.17s0.36,0.55,0.68,0.72c0.31,0.17,0.72,0.26,1.21,0.26
		c0.48,0,0.89-0.1,1.23-0.3s0.56-0.45,0.68-0.73c0.12-0.28,0.18-0.68,0.18-1.2v-3.85h-0.86V263.31z"/>
	<path class="st2" d="M163.72,261.96l-1.02-0.25c-0.56-0.14-0.83-0.38-0.83-0.72c0-0.22,0.09-0.4,0.27-0.54
		c0.18-0.14,0.43-0.21,0.77-0.21c0.58,0,0.95,0.23,1.11,0.68l1.03-0.25c-0.11-0.41-0.37-0.73-0.78-0.96
		c-0.41-0.23-0.87-0.34-1.38-0.34c-0.62,0-1.13,0.16-1.53,0.48c-0.4,0.32-0.6,0.75-0.6,1.29c0,0.27,0.06,0.52,0.17,0.76
		c0.11,0.24,0.26,0.42,0.45,0.55c0.19,0.13,0.48,0.25,0.87,0.35l1.15,0.3c0.31,0.08,0.51,0.19,0.6,0.33
		c0.09,0.14,0.14,0.29,0.14,0.46c0,0.23-0.1,0.41-0.31,0.57c-0.21,0.15-0.5,0.23-0.88,0.23c-0.84,0-1.32-0.3-1.45-0.89l-1.05,0.22
		c0.15,0.53,0.44,0.92,0.89,1.16c0.45,0.25,0.97,0.37,1.56,0.37c0.71,0,1.28-0.17,1.72-0.51s0.67-0.8,0.67-1.39
		c0-0.37-0.11-0.7-0.32-1C164.75,262.35,164.34,262.12,163.72,261.96z"/>
	<path class="st2" d="M169.75,261.96l-1.02-0.25c-0.56-0.14-0.83-0.38-0.83-0.72c0-0.22,0.09-0.4,0.27-0.54
		c0.18-0.14,0.43-0.21,0.77-0.21c0.58,0,0.95,0.23,1.11,0.68l1.03-0.25c-0.11-0.41-0.37-0.73-0.78-0.96
		c-0.41-0.23-0.87-0.34-1.38-0.34c-0.62,0-1.13,0.16-1.53,0.48c-0.4,0.32-0.6,0.75-0.6,1.29c0,0.27,0.06,0.52,0.17,0.76
		c0.11,0.24,0.26,0.42,0.45,0.55c0.19,0.13,0.48,0.25,0.87,0.35l1.15,0.3c0.31,0.08,0.51,0.19,0.6,0.33
		c0.09,0.14,0.14,0.29,0.14,0.46c0,0.23-0.1,0.41-0.31,0.57c-0.21,0.15-0.5,0.23-0.88,0.23c-0.84,0-1.32-0.3-1.45-0.89l-1.05,0.22
		c0.15,0.53,0.44,0.92,0.89,1.16c0.45,0.25,0.97,0.37,1.56,0.37c0.71,0,1.28-0.17,1.72-0.51s0.67-0.8,0.67-1.39
		c0-0.37-0.11-0.7-0.32-1C170.79,262.35,170.37,262.12,169.75,261.96z"/>
	<polygon class="st2" points="174.22,262.85 176.45,262.85 176.45,261.98 174.22,261.98 174.22,260.36 176.99,260.36 176.99,259.46 
		173.14,259.46 173.14,265.46 177.03,265.46 177.03,264.53 174.22,264.53 	"/>
	<polygon class="st2" points="183.06,259.46 182.05,259.46 180.88,261.46 179.77,259.46 178.52,259.46 180.15,262.33 178.25,265.46 
		179.26,265.46 180.66,263.09 181.99,265.46 183.25,265.46 181.39,262.2 	"/>
	<polygon class="st2" points="191.37,261.93 189.08,261.93 189.08,259.46 188,259.46 188,265.46 189.08,265.46 189.08,262.85 
		191.37,262.85 191.37,265.46 192.45,265.46 192.45,259.46 191.37,259.46 	"/>
	<path class="st2" d="M197.92,263.31c0,0.5-0.1,0.84-0.3,1.02c-0.2,0.18-0.47,0.27-0.81,0.27c-0.29,0-0.55-0.08-0.77-0.25
		c-0.22-0.17-0.33-0.51-0.33-1.04v-3.85h-1.1v3.93c0,0.47,0.07,0.86,0.21,1.17s0.36,0.55,0.68,0.72c0.31,0.17,0.72,0.26,1.21,0.26
		c0.48,0,0.89-0.1,1.23-0.3s0.56-0.45,0.68-0.73c0.12-0.28,0.18-0.68,0.18-1.2v-3.85h-0.86V263.31z"/>
	<polygon class="st2" points="203.85,263.32 202.6,259.46 200.91,259.46 200.91,265.46 201.79,265.46 201.79,260.21 203.46,265.46 
		204.03,265.46 205.68,260.21 205.68,265.46 206.79,265.46 206.79,259.46 205.09,259.46 	"/>
	<path class="st2" d="M210.37,259.46l-1.99,5.99h0.92l0.47-1.43h2.3l0.48,1.43h1.16l-2.01-5.99H210.37z M210.04,263.17l0.87-2.67
		l0.87,2.67H210.04z"/>
	<path class="st2" d="M219,263.64c-0.24-0.4-0.36-0.62-0.38-0.65l-2.1-3.53h-1.19v5.99h0.87v-4.39c0.07,0.13,0.13,0.22,0.16,0.28
		c0.08,0.13,0.14,0.23,0.17,0.29l2.27,3.83h1.05v-5.99H219V263.64z"/>
	<rect x="222.07" y="259.46" class="st2" width="1.08" height="5.99"/>
	<polygon class="st2" points="224.71,260.39 226.3,260.39 226.3,265.46 227.46,265.46 227.46,260.39 229.05,260.39 229.05,259.46 
		224.71,259.46 	"/>
	<rect x="230.61" y="259.46" class="st2" width="1.08" height="5.99"/>
	<polygon class="st2" points="234.99,262.85 237.22,262.85 237.22,261.98 234.99,261.98 234.99,260.36 237.76,260.36 237.76,259.46 
		233.91,259.46 233.91,265.46 237.8,265.46 237.8,264.53 234.99,264.53 	"/>
	<path class="st2" d="M242.28,261.96l-1.02-0.25c-0.56-0.14-0.83-0.38-0.83-0.72c0-0.22,0.09-0.4,0.27-0.54
		c0.18-0.14,0.43-0.21,0.77-0.21c0.58,0,0.95,0.23,1.11,0.68l1.03-0.25c-0.11-0.41-0.37-0.73-0.78-0.96
		c-0.41-0.23-0.87-0.34-1.38-0.34c-0.62,0-1.13,0.16-1.53,0.48c-0.4,0.32-0.6,0.75-0.6,1.29c0,0.27,0.06,0.52,0.17,0.76
		c0.11,0.24,0.26,0.42,0.45,0.55c0.19,0.13,0.48,0.25,0.87,0.35l1.15,0.3c0.31,0.08,0.51,0.19,0.6,0.33
		c0.09,0.14,0.14,0.29,0.14,0.46c0,0.23-0.1,0.41-0.31,0.57c-0.21,0.15-0.5,0.23-0.88,0.23c-0.84,0-1.32-0.3-1.45-0.89l-1.05,0.22
		c0.15,0.53,0.44,0.92,0.89,1.16c0.45,0.25,0.97,0.37,1.56,0.37c0.71,0,1.28-0.17,1.72-0.51s0.67-0.8,0.67-1.39
		c0-0.37-0.11-0.7-0.32-1C243.31,262.35,242.9,262.12,242.28,261.96z"/>
	<polygon class="st2" points="249.95,259.46 248.81,259.46 248.81,265.46 252.5,265.46 252.5,264.48 249.95,264.48 	"/>
	<path class="st2" d="M255.55,259.46l-1.99,5.99h0.92l0.47-1.43h2.3l0.48,1.43h1.16l-2.01-5.99H255.55z M255.22,263.17l0.87-2.67
		l0.87,2.67H255.22z"/>
	<path class="st2" d="M263.7,262.35c0.34-0.07,0.61-0.22,0.8-0.47c0.19-0.24,0.29-0.53,0.29-0.86c0-0.35-0.09-0.66-0.29-0.92
		s-0.42-0.43-0.68-0.51c-0.26-0.08-0.59-0.12-0.98-0.12h-2.34v5.99h2.62c0.63,0,1.09-0.16,1.4-0.47c0.3-0.31,0.45-0.7,0.45-1.17
		c0-0.37-0.11-0.69-0.33-0.96C264.44,262.59,264.12,262.42,263.7,262.35z M261.54,260.32h1.29c0.24,0,0.45,0.06,0.63,0.2
		c0.18,0.13,0.27,0.33,0.27,0.61c0,0.25-0.08,0.45-0.24,0.62c-0.16,0.16-0.37,0.24-0.64,0.24h-1.32V260.32z M263.63,264.32
		c-0.17,0.16-0.4,0.23-0.7,0.23h-1.4v-1.72h1.4c0.29,0,0.52,0.08,0.69,0.24c0.17,0.16,0.26,0.37,0.26,0.62
		C263.89,263.96,263.8,264.17,263.63,264.32z"/>
	
		<ellipse transform="matrix(0.7071 -0.7071 0.7071 0.7071 -71.2379 240.6396)" class="st2" cx="254.85" cy="206.31" rx="2.84" ry="2.84"/>
	
		<ellipse transform="matrix(0.7071 -0.7071 0.7071 0.7071 -107.6265 120.0329)" class="st2" cx="91.08" cy="189.93" rx="2.84" ry="2.84"/>
	
		<rect x="96.21" y="195.06" transform="matrix(0.7071 -0.7071 0.7071 0.7071 -111.0173 128.2184)" class="st2" width="6.11" height="6.11"/>
	
		<rect x="96.21" y="211.44" transform="matrix(0.7071 -0.7071 0.7071 0.7071 -122.5977 133.0151)" class="st2" width="6.11" height="6.11"/>
	
		<rect x="96.21" y="113.18" transform="matrix(0.7071 -0.7071 0.7071 0.7071 -53.1157 104.234)" class="st2" width="6.11" height="6.11"/>
	
		<rect x="79.83" y="31.29" transform="matrix(0.7071 -0.7071 0.7071 0.7071 -0.0108 68.6715)" class="st2" width="6.11" height="6.11"/>
	
		<rect x="63.46" y="113.18" transform="matrix(0.7071 -0.7071 0.7071 0.7071 -62.7091 81.0745)" class="st2" width="6.11" height="6.11"/>
	
		<rect x="96.21" y="178.69" transform="matrix(0.7071 -0.7071 0.7071 0.7071 -99.4366 123.4203)" class="st2" width="6.11" height="6.11"/>
	
		<rect x="96.21" y="96.8" transform="matrix(0.7071 -0.7071 0.7071 0.7071 -41.5355 99.4384)" class="st2" width="6.11" height="6.11"/>
	
		<rect x="79.83" y="211.44" transform="matrix(0.7071 -0.7071 0.7071 0.7071 -127.3949 121.4364)" class="st2" width="6.11" height="6.11"/>
	
		<rect x="79.83" y="129.56" transform="matrix(0.7071 -0.7071 0.7071 0.7071 -69.4927 97.4516)" class="st2" width="6.11" height="6.11"/>
	
		<rect x="63.46" y="80.42" transform="matrix(0.7071 -0.7071 0.7071 0.7071 -39.5485 71.4819)" class="st2" width="6.11" height="6.11"/>
	
		<rect x="63.46" y="31.29" transform="matrix(0.7071 -0.7071 0.7071 0.7071 -4.8075 57.0911)" class="st2" width="6.11" height="6.11"/>
	
		<rect x="79.83" y="47.67" transform="matrix(0.7071 -0.7071 0.7071 0.7071 -11.5911 73.4682)" class="st2" width="6.11" height="6.11"/>
	
		<ellipse transform="matrix(0.7071 -0.7071 0.7071 0.7071 10.9863 111.5987)" class="st2" cx="140.21" cy="42.54" rx="2.84" ry="2.84"/>
	
		<rect x="79.83" y="162.31" transform="matrix(0.7071 -0.7071 0.7071 0.7071 -92.6533 107.0449)" class="st2" width="6.11" height="6.11"/>
	<polygon class="st2" points="94.94,132.61 94.94,132.61 99.27,136.93 103.59,132.61 103.59,132.61 99.27,128.29 	"/>
	
		<rect x="128.96" y="113.18" transform="matrix(0.7071 -0.7071 0.7071 0.7071 -43.522 127.402)" class="st2" width="6.11" height="6.11"/>
	
		<rect x="128.96" y="162.31" transform="matrix(0.7071 -0.7071 0.7071 0.7071 -78.2642 141.7932)" class="st2" width="6.11" height="6.11"/>
	
		<rect x="128.96" y="129.56" transform="matrix(0.7071 -0.7071 0.7071 0.7071 -55.1027 132.1991)" class="st2" width="6.11" height="6.11"/>
	
		<rect x="112.59" y="31.29" transform="matrix(0.7071 -0.7071 0.7071 0.7071 9.5825 91.8321)" class="st2" width="6.11" height="6.11"/>
	
		<rect x="128.96" y="80.42" transform="matrix(0.7071 -0.7071 0.7071 0.7071 -20.3603 117.8089)" class="st2" width="6.11" height="6.11"/>
	
		<rect x="128.96" y="64.05" transform="matrix(0.7071 -0.7071 0.7071 0.7071 -8.7795 113.0117)" class="st2" width="6.11" height="6.11"/>
	
		<rect x="112.59" y="64.05" transform="matrix(0.7071 -0.7071 0.7071 0.7071 -13.5779 101.4263)" class="st2" width="6.11" height="6.11"/>
	
		<rect x="128.96" y="96.8" transform="matrix(0.7071 -0.7071 0.7071 0.7071 -31.9411 122.6061)" class="st2" width="6.11" height="6.11"/>
	
		<rect x="112.59" y="47.67" transform="matrix(0.7071 -0.7071 0.7071 0.7071 -1.9978 96.6287)" class="st2" width="6.11" height="6.11"/>
	
		<ellipse transform="matrix(0.7071 -0.7071 0.7071 0.7071 -114.408 136.4035)" class="st2" cx="107.45" cy="206.31" rx="2.84" ry="2.84"/>
	
		<rect x="96.21" y="64.05" transform="matrix(0.7071 -0.7071 0.7071 0.7071 -18.3748 89.845)" class="st2" width="6.11" height="6.11"/>
	
		<rect x="112.59" y="178.69" transform="matrix(0.7071 -0.7071 0.7071 0.7071 -94.6403 135.0021)" class="st2" width="6.11" height="6.11"/>
	
		<rect x="96.21" y="80.42" transform="matrix(0.7071 -0.7071 0.7071 0.7071 -29.9552 94.6417)" class="st2" width="6.11" height="6.11"/>
	
		<rect x="112.59" y="96.8" transform="matrix(0.7071 -0.7071 0.7071 0.7071 -36.7387 111.0199)" class="st2" width="6.11" height="6.11"/>
	<polygon class="st2" points="115.64,144.67 111.32,148.99 115.64,153.31 119.97,148.99 115.64,144.67 	"/>
	
		<rect x="112.59" y="162.31" transform="matrix(0.7071 -0.7071 0.7071 0.7071 -83.06 130.2055)" class="st2" width="6.11" height="6.11"/>
	
		<rect x="79.83" y="145.93" transform="matrix(0.7071 -0.7071 0.7071 0.7071 -81.073 102.2482)" class="st2" width="6.11" height="6.11"/>
	
		<ellipse transform="matrix(0.7071 -0.7071 0.7071 0.7071 -64.1146 61.3072)" class="st2" cx="41.95" cy="108.05" rx="2.84" ry="2.84"/>
	
		<rect x="30.7" y="64.05" transform="matrix(0.7071 -0.7071 0.7071 0.7071 -37.5613 43.5234)" class="st2" width="6.11" height="6.11"/>
	
		<ellipse transform="matrix(0.7071 -0.7071 0.7071 0.7071 -52.5341 56.5104)" class="st2" cx="41.95" cy="91.67" rx="2.84" ry="2.84"/>
	
		<rect x="30.7" y="113.18" transform="matrix(0.7071 -0.7071 0.7071 0.7071 -72.3024 57.9139)" class="st2" width="6.11" height="6.11"/>
	
		<rect x="30.7" y="129.56" transform="matrix(0.7071 -0.7071 0.7071 0.7071 -83.8827 62.7106)" class="st2" width="6.11" height="6.11"/>
	
		<rect x="30.7" y="80.42" transform="matrix(0.7071 -0.7071 0.7071 0.7071 -49.1415 48.32)" class="st2" width="6.11" height="6.11"/>
	
		<rect x="30.7" y="211.44" transform="matrix(0.7071 -0.7071 0.7071 0.7071 -141.7852 86.6952)" class="st2" width="6.11" height="6.11"/>
	
		<ellipse transform="matrix(0.7071 -0.7071 0.7071 0.7071 -17.7927 42.1203)" class="st2" cx="41.95" cy="42.54" rx="2.84" ry="2.84"/>
	
		<ellipse transform="matrix(0.7071 -0.7071 0.7071 0.7071 25.3758 146.3391)" class="st2" cx="189.34" cy="42.54" rx="2.84" ry="2.84"/>
	
		<rect x="259.98" y="64.05" transform="matrix(0.7071 -0.7071 0.7071 0.7071 29.591 205.6466)" class="st2" width="6.11" height="6.11"/>
	
		<rect x="178.1" y="64.05" transform="matrix(0.7071 -0.7071 0.7071 0.7071 5.608 147.7455)" class="st2" width="6.11" height="6.11"/>
	
		<rect x="178.1" y="80.42" transform="matrix(0.7071 -0.7071 0.7071 0.7071 -5.9722 152.5421)" class="st2" width="6.11" height="6.11"/>
	
		<rect x="178.1" y="113.18" transform="matrix(0.7071 -0.7071 0.7071 0.7071 -29.1323 162.1367)" class="st2" width="6.11" height="6.11"/>
	
		<rect x="178.1" y="96.8" transform="matrix(0.7071 -0.7071 0.7071 0.7071 -17.552 157.3401)" class="st2" width="6.11" height="6.11"/>
	
		<rect x="178.1" y="129.56" transform="matrix(0.7071 -0.7071 0.7071 0.7071 -40.7127 166.9334)" class="st2" width="6.11" height="6.11"/>
	
		<rect x="47.08" y="195.06" transform="matrix(0.7071 -0.7071 0.7071 0.7071 -125.4074 93.4775)" class="st2" width="6.11" height="6.11"/>
	
		<ellipse transform="matrix(0.7071 -0.7071 0.7071 0.7071 -59.3164 72.8832)" class="st2" cx="58.32" cy="108.05" rx="2.84" ry="2.84"/>
	
		<ellipse transform="matrix(0.7071 -0.7071 0.7071 0.7071 -47.7364 68.0868)" class="st2" cx="58.32" cy="91.67" rx="2.84" ry="2.84"/>
	
		<rect x="47.08" y="31.29" transform="matrix(0.7071 -0.7071 0.7071 0.7071 -9.6043 45.5103)" class="st2" width="6.11" height="6.11"/>
	
		<rect x="63.46" y="145.93" transform="matrix(0.7071 -0.7071 0.7071 0.7071 -85.8697 90.6678)" class="st2" width="6.11" height="6.11"/>
	
		<rect x="47.08" y="47.67" transform="matrix(0.7071 -0.7071 0.7071 0.7071 -21.1845 50.3069)" class="st2" width="6.11" height="6.11"/>
	
		<rect x="63.46" y="162.31" transform="matrix(0.7071 -0.7071 0.7071 0.7071 -97.45 95.4645)" class="st2" width="6.11" height="6.11"/>
	
		<rect x="30.7" y="195.06" transform="matrix(0.7071 -0.7071 0.7071 0.7071 -130.2048 81.8985)" class="st2" width="6.11" height="6.11"/>
	
		<rect x="63.46" y="211.44" transform="matrix(0.7071 -0.7071 0.7071 0.7071 -132.1917 109.8559)" class="st2" width="6.11" height="6.11"/>
	
		<rect x="47.08" y="64.05" transform="matrix(0.7071 -0.7071 0.7071 0.7071 -32.7649 55.1041)" class="st2" width="6.11" height="6.11"/>
	
		<rect x="47.08" y="211.44" transform="matrix(0.7071 -0.7071 0.7071 0.7071 -136.9877 98.2742)" class="st2" width="6.11" height="6.11"/>
	
		<rect x="30.7" y="178.69" transform="matrix(0.7071 -0.7071 0.7071 0.7071 -118.6237 77.1006)" class="st2" width="6.11" height="6.11"/>
	
		<rect x="35.83" y="151.06" transform="matrix(0.7071 -0.7071 0.7071 0.7071 -98.8546 75.6953)" class="st2" width="12.23" height="12.23"/>
	
		<rect x="63.46" y="129.56" transform="matrix(0.7071 -0.7071 0.7071 0.7071 -74.2894 85.8712)" class="st2" width="6.11" height="6.11"/>
	
		<rect x="47.08" y="96.8" transform="matrix(0.7071 -0.7071 0.7071 0.7071 -55.9255 64.6975)" class="st2" width="6.11" height="6.11"/>
	
		<rect x="47.08" y="129.56" transform="matrix(0.7071 -0.7071 0.7071 0.7071 -79.0857 74.2899)" class="st2" width="6.11" height="6.11"/>
	
		<ellipse transform="matrix(0.7071 -0.7071 0.7071 0.7071 -24.5763 58.4946)" class="st2" cx="58.32" cy="58.91" rx="2.84" ry="2.84"/>
	
		<rect x="227.23" y="211.44" transform="matrix(0.7071 -0.7071 0.7071 0.7071 -84.2241 225.6621)" class="st2" width="6.11" height="6.11"/>
	
		<rect x="227.23" y="129.56" transform="matrix(0.7071 -0.7071 0.7071 0.7071 -26.3197 201.6851)" class="st2" width="6.11" height="6.11"/>
	
		<rect x="227.23" y="162.31" transform="matrix(0.7071 -0.7071 0.7071 0.7071 -49.4817 211.2775)" class="st2" width="6.11" height="6.11"/>
	
		<rect x="227.23" y="195.06" transform="matrix(0.7071 -0.7071 0.7071 0.7071 -72.6431 220.8717)" class="st2" width="6.11" height="6.11"/>
	
		<rect x="227.23" y="178.69" transform="matrix(0.7071 -0.7071 0.7071 0.7071 -61.0624 216.0746)" class="st2" width="6.11" height="6.11"/>
	
		<rect x="227.23" y="31.29" transform="matrix(0.7071 -0.7071 0.7071 0.7071 43.1641 172.9008)" class="st2" width="6.11" height="6.11"/>
	
		<rect x="227.23" y="64.05" transform="matrix(0.7071 -0.7071 0.7071 0.7071 20.0026 182.495)" class="st2" width="6.11" height="6.11"/>
	
		<rect x="227.23" y="113.18" transform="matrix(0.7071 -0.7071 0.7071 0.7071 -14.7389 196.888)" class="st2" width="6.11" height="6.11"/>
	
		<rect x="227.23" y="47.67" transform="matrix(0.7071 -0.7071 0.7071 0.7071 31.5843 177.6993)" class="st2" width="6.11" height="6.11"/>
	
		<rect x="210.85" y="195.06" transform="matrix(0.7071 -0.7071 0.7071 0.7071 -77.4407 209.2787)" class="st2" width="6.11" height="6.11"/>
	
		<rect x="210.85" y="178.69" transform="matrix(0.7071 -0.7071 0.7071 0.7071 -65.8604 204.4821)" class="st2" width="6.11" height="6.11"/>
	
		<ellipse transform="matrix(0.7071 -0.7071 0.7071 0.7071 -11.3487 188.6943)" class="st2" cx="222.09" cy="108.05" rx="2.84" ry="2.84"/>
	
		<rect x="210.85" y="211.44" transform="matrix(0.7071 -0.7071 0.7071 0.7071 -89.0209 214.0817)" class="st2" width="6.11" height="6.11"/>
	
		<rect x="210.85" y="129.56" transform="matrix(0.7071 -0.7071 0.7071 0.7071 -31.1193 190.094)" class="st2" width="6.11" height="6.11"/>
	
		<ellipse transform="matrix(0.7071 -0.7071 0.7071 0.7071 -34.5116 198.2803)" class="st2" cx="222.09" cy="140.8" rx="2.84" ry="2.84"/>
	
		<rect x="210.85" y="31.29" transform="matrix(0.7071 -0.7071 0.7071 0.7071 38.3617 161.3127)" class="st2" width="6.11" height="6.11"/>
	
		<rect x="243.6" y="145.93" transform="matrix(0.7071 -0.7071 0.7071 0.7071 -33.1063 218.0513)" class="st2" width="6.11" height="6.11"/>
	
		<rect x="259.98" y="129.56" transform="matrix(0.7071 -0.7071 0.7071 0.7071 -16.7293 224.835)" class="st2" width="6.11" height="6.11"/>
	
		<ellipse transform="matrix(0.7071 -0.7071 0.7071 0.7071 9.8248 207.0566)" class="st2" cx="254.85" cy="91.67" rx="2.84" ry="2.84"/>
	
		<rect x="259.98" y="162.31" transform="matrix(0.7071 -0.7071 0.7071 0.7071 -39.8899 234.4283)" class="st2" width="6.11" height="6.11"/>
	
		<rect x="145.34" y="211.44" transform="matrix(0.7071 -0.7071 0.7071 0.7071 -108.2073 167.7542)" class="st2" width="6.11" height="6.11"/>
	
		<rect x="259.98" y="113.18" transform="matrix(0.7071 -0.7071 0.7071 0.7071 -5.149 220.0383)" class="st2" width="6.11" height="6.11"/>
	
		<rect x="259.98" y="96.8" transform="matrix(0.7071 -0.7071 0.7071 0.7071 6.4322 215.2434)" class="st2" width="6.11" height="6.11"/>
	
		<rect x="243.6" y="47.67" transform="matrix(0.7071 -0.7071 0.7071 0.7071 36.3756 189.2712)" class="st2" width="6.11" height="6.11"/>
	
		<rect x="243.6" y="162.31" transform="matrix(0.7071 -0.7071 0.7071 0.7071 -44.687 222.8459)" class="st2" width="6.11" height="6.11"/>
	
		<ellipse transform="matrix(0.7071 -0.7071 0.7071 0.7071 -6.5504 200.2785)" class="st2" cx="238.47" cy="108.05" rx="2.84" ry="2.84"/>
	
		<rect x="243.6" y="211.44" transform="matrix(0.7071 -0.7071 0.7071 0.7071 -79.4272 237.2426)" class="st2" width="6.11" height="6.11"/>
	
		<rect x="243.6" y="195.06" transform="matrix(0.7071 -0.7071 0.7071 0.7071 -67.8475 232.4391)" class="st2" width="6.11" height="6.11"/>
	
		<ellipse transform="matrix(0.7071 -0.7071 0.7071 0.7071 18.596 162.7228)" class="st2" cx="205.72" cy="58.91" rx="2.84" ry="2.84"/>
	
		<rect x="243.6" y="64.05" transform="matrix(0.7071 -0.7071 0.7071 0.7071 24.7944 194.0663)" class="st2" width="6.11" height="6.11"/>
	
		<rect x="243.6" y="129.56" transform="matrix(0.7071 -0.7071 0.7071 0.7071 -21.526 213.2546)" class="st2" width="6.11" height="6.11"/>
	
		<rect x="259.98" y="80.42" transform="matrix(0.7071 -0.7071 0.7071 0.7071 18.0125 210.4467)" class="st2" width="6.11" height="6.11"/>
	
		<rect x="145.34" y="31.29" transform="matrix(0.7071 -0.7071 0.7071 0.7071 19.1753 114.9917)" class="st2" width="6.11" height="6.11"/>
	
		<ellipse transform="matrix(0.7071 -0.7071 0.7071 0.7071 4.2026 127.9754)" class="st2" cx="156.59" cy="58.91" rx="2.84" ry="2.84"/>
	
		<rect x="145.34" y="47.67" transform="matrix(0.7071 -0.7071 0.7071 0.7071 7.5955 119.7893)" class="st2" width="6.11" height="6.11"/>
	
		<rect x="161.72" y="211.44" transform="matrix(0.7071 -0.7071 0.7071 0.7071 -103.4107 179.3345)" class="st2" width="6.11" height="6.11"/>
	
		<rect x="145.34" y="64.05" transform="matrix(0.7071 -0.7071 0.7071 0.7071 -3.9852 124.5849)" class="st2" width="6.11" height="6.11"/>
	
		<rect x="161.72" y="129.56" transform="matrix(0.7071 -0.7071 0.7071 0.7071 -45.5093 155.3531)" class="st2" width="6.11" height="6.11"/>
	
		<ellipse transform="matrix(0.7071 -0.7071 0.7071 0.7071 -4.567 172.3119)" class="st2" cx="205.72" cy="91.67" rx="2.84" ry="2.84"/>
	
		<rect x="145.34" y="80.42" transform="matrix(0.7071 -0.7071 0.7071 0.7071 -15.5654 129.3815)" class="st2" width="6.11" height="6.11"/>
	
		<rect x="145.34" y="162.31" transform="matrix(0.7071 -0.7071 0.7071 0.7071 -73.4666 153.3645)" class="st2" width="6.11" height="6.11"/>
	
		<rect x="145.34" y="178.69" transform="matrix(0.7071 -0.7071 0.7071 0.7071 -85.0468 158.1611)" class="st2" width="6.11" height="6.11"/>
	
		<rect x="145.34" y="195.06" transform="matrix(0.7071 -0.7071 0.7071 0.7071 -96.6271 162.9577)" class="st2" width="6.11" height="6.11"/>
	
		<rect x="145.34" y="129.56" transform="matrix(0.7071 -0.7071 0.7071 0.7071 -50.306 143.7727)" class="st2" width="6.11" height="6.11"/>
	
		<rect x="145.34" y="145.93" transform="matrix(0.7071 -0.7071 0.7071 0.7071 -61.8863 148.5694)" class="st2" width="6.11" height="6.11"/>
	
		<rect x="145.34" y="96.8" transform="matrix(0.7071 -0.7071 0.7071 0.7071 -27.1454 134.1793)" class="st2" width="6.11" height="6.11"/>
	
		<rect x="161.72" y="113.18" transform="matrix(0.7071 -0.7071 0.7071 0.7071 -33.929 150.5564)" class="st2" width="6.11" height="6.11"/>
	
		<rect x="161.72" y="162.31" transform="matrix(0.7071 -0.7071 0.7071 0.7071 -68.67 164.9448)" class="st2" width="6.11" height="6.11"/>
	
		<rect x="194.47" y="113.18" transform="matrix(0.7071 -0.7071 0.7071 0.7071 -24.3357 173.717)" class="st2" width="6.11" height="6.11"/>
	
		<rect x="194.47" y="80.42" transform="matrix(0.7071 -0.7071 0.7071 0.7071 -1.1757 164.1222)" class="st2" width="6.11" height="6.11"/>
	
		<rect x="194.47" y="96.8" transform="matrix(0.7071 -0.7071 0.7071 0.7071 -12.7554 168.9203)" class="st2" width="6.11" height="6.11"/>
	
		<rect x="194.47" y="129.56" transform="matrix(0.7071 -0.7071 0.7071 0.7071 -35.916 178.5136)" class="st2" width="6.11" height="6.11"/>
	
		<rect x="194.47" y="31.29" transform="matrix(0.7071 -0.7071 0.7071 0.7071 33.565 149.7324)" class="st2" width="6.11" height="6.11"/>
	
		<rect x="194.47" y="145.93" transform="matrix(0.7071 -0.7071 0.7071 0.7071 -47.4963 183.3103)" class="st2" width="6.11" height="6.11"/>
	
		<rect x="194.47" y="47.67" transform="matrix(0.7071 -0.7071 0.7071 0.7071 21.9855 154.5303)" class="st2" width="6.11" height="6.11"/>
	
		<rect x="194.47" y="64.05" transform="matrix(0.7071 -0.7071 0.7071 0.7071 10.4046 159.3256)" class="st2" width="6.11" height="6.11"/>
	
		<rect x="178.1" y="178.69" transform="matrix(0.7071 -0.7071 0.7071 0.7071 -75.4536 181.3216)" class="st2" width="6.11" height="6.11"/>
	
		<rect x="183.3" y="200.4" transform="matrix(0.7071 -0.7071 0.7071 0.7071 -90.5701 194.3683)" class="st2" width="12.07" height="12.23"/>
	
		<rect x="161.72" y="31.29" transform="matrix(0.7071 -0.7071 0.7071 0.7071 23.9719 126.572)" class="st2" width="6.11" height="6.11"/>
	
		<ellipse transform="matrix(0.7071 -0.7071 0.7071 0.7071 -48.9012 163.5414)" class="st2" cx="172.96" cy="140.8" rx="2.84" ry="2.84"/>
	
		<rect x="194.47" y="178.69" transform="matrix(0.7071 -0.7071 0.7071 0.7071 -70.657 192.9018)" class="st2" width="6.11" height="6.11"/>
	
		<rect x="194.47" y="162.31" transform="matrix(0.7071 -0.7071 0.7071 0.7071 -59.0768 188.1052)" class="st2" width="6.11" height="6.11"/>
	
		<ellipse transform="matrix(0.7071 -0.7071 0.7071 0.7071 -14.9824 81.659)" class="st2" cx="91.08" cy="58.91" rx="2.84" ry="2.84"/>
	
		<ellipse transform="matrix(0.7071 -0.7071 0.7071 0.7071 -30.5365 142.372)" class="st2" cx="156.59" cy="108.05" rx="2.84" ry="2.84"/>
	
		<ellipse transform="matrix(0.7071 -0.7071 0.7071 0.7071 -68.0875 117.2175)" class="st2" cx="107.45" cy="140.8" rx="2.84" ry="2.84"/>
</g>
</svg>
